<?xml version="1.0" standalone="no"?>
<!DOCTYPE svg PUBLIC "-//W3C//DTD SVG 1.1//EN" "http://www.w3.org/Graphics/SVG/1.1/DTD/svg11.dtd" >
<svg xmlns="http://www.w3.org/2000/svg" xmlns:xlink="http://www.w3.org/1999/xlink" version="1.1">
<metadata>
Created by FontForge 20150318 at Wed Oct  7 15:55:58 2015
 By uniteet7
(C) Copyright GreatWall Computer Co. 1994
</metadata>
<defs>
<font id="KaiTi_GB2312" horiz-adv-x="256" >
  <font-face 
    font-family="KaiTi_GB2312"
    font-weight="400"
    font-stretch="normal"
    units-per-em="256"
    panose-1="2 1 6 9 3 1 1 1 1 1"
    ascent="220"
    descent="-36"
    bbox="1.17857 -32.08 254 215.875"
    underline-thickness="12"
    underline-position="-16"
    unicode-range="U+201C-9886"
  />
<missing-glyph 
 />
    <glyph glyph-name=".notdef" 
 />
    <glyph glyph-name="quotedblleft" unicode="&#x201c;" 
d="M186.5 118.5q-4.5 -4.5 -12 -4t-13.5 8.5t-4 24t14 25.5t13.5 9.5h3t1.5 -2t-5.5 -6.5t-11.5 -14.5t-4 -22q7 4 11.5 3.5t8 -4t3.5 -8.5t-4.5 -9.5zM219.5 115q-7.5 1 -13 9.5t-3.5 23t14.5 24.5t14 10h3t1.5 -2t-7.5 -8t-12 -14t-1.5 -20q7 3 11.5 2.5t7.5 -4t3 -8.5
t-5 -9.5t-12.5 -3.5z" />
    <glyph glyph-name="quotedblright" unicode="&#x201d;" 
d="M20 175.5q3 3.5 7.5 5t9.5 0.5t10.5 -8.5t5 -22t-14 -25.5t-16 -11t-2.5 2.5t6 7t11.5 13.5t3.5 22q-10 -3 -13.5 -3t-7 3.5t-3.5 8t3 8zM66 176q3 4 9 5.5t11 -1t9 -9t3 -20.5t-14 -25.5t-15.5 -11.5t-2.5 2.5t5.5 6.5t11 13.5t2.5 24.5q-8 -6 -12.5 -5.5t-7 4t-2.5 8
t3 8.5z" />
    <glyph glyph-name="uni6848" unicode="&#x6848;" 
d="M120 155.5q0 -2.5 -26 -37.5q8 -2 37 -9t43.5 -10t17 -7.5t3 -10t-2 -6t-33.5 12.5t-79 25q9 13 17 28.5t5 27.5q8 0 13 -5.5t5 -8zM172.5 159.5q-10.5 -6.5 -11 -5t3 9.5t2.5 9t-103 -11v8q13 -1 20 0.5t28.5 4t37 4.5t20 4t6.5 2t12 -6.5t10 -8.5t-7.5 -3t-18 -7.5z
M66 180q2 0 7 -6t-1 -18.5t-11 -16t-8.5 2t-3.5 7.5t6.5 8t7.5 14.5t3 8.5zM134.5 186.5q-1.5 -1.5 -8 0t-14.5 11t-8 14.5q8 0 19.5 -4.5t12 -12t-1 -9zM155 130.5q-4 -5.5 -10 -12.5t-20 -16t-31 -15t-33.5 -8.5t-17 -0.5t11.5 5t30 10t32.5 17t19 17.5t5.5 10.5t-1 8
t1.5 5t10 -4.5t6.5 -7.5t-4 -8.5zM24.5 112.5q-3.5 0.5 -10 5t-6.5 6.5t12 2t48 4t80.5 9t54 8t15.5 0.5t10 -6.5t4 -5.5t-1.5 -2.5t-40 -1t-73.5 -5t-53 -7t-27 -5t-12.5 -2.5zM42.5 54q-0.5 2 2.5 2.5t16.5 0.5t46.5 4t41.5 6t19.5 3.5t18.5 -3t7.5 -6t-1.5 -3t-28 -1.5
t-41 -2.5t-17.5 -2.5t-23 -2.5l-24 -3t-10.5 2.5t-7 5zM235 -1q0 -2 -8.5 -4t-22.5 -4t-17 -1t-35 31.5t-29 37.5q8 -5 18.5 -13.5t32.5 -21.5t41.5 -18t19.5 -7zM107.5 84q2.5 2 10 -0.5t10 -5t2.5 -6.5t-2.5 -12.5t-2 -35.5t-1.5 -40.5t-4.5 -13.5t-6.5 9t-4 12t2.5 7.5
t3 35.5t-0.5 36t-5 8.5t-1.5 5.5zM103 33q-12 -13 -31 -24t-33.5 -15t-15 -2.5t26.5 16t57 49.5q5 -3 12 -7q-4 -4 -16 -17z" />
    <glyph glyph-name="uni88AB" unicode="&#x88ab;" 
d="M86 163q-3 -3 -5.5 -3t-14 15t-11 17t6 1.5t16 -6t11 -13.5t-2.5 -11zM44.5 85.5q9.5 11.5 16 25t5 15t-23 -6.5t-23.5 -8t-8 4t-6 6.5t5.5 2.5t15 1.5t23.5 6t18 8t7.5 3.5t10 -5.5t6 -7.5t-4.5 -5t-10.5 -14.5t-19.5 -27.5t-32 -31t-20 -13t15 18.5t25.5 28zM63 103
q3 -8 4 -14.5t1 -33.5t-3.5 -49.5t-6 -22.5t-5 8t-2.5 10t3 20t3 31.5t-1 40.5zM69 76q5 5 11.5 13.5t7 13.5t3 5t6.5 -6.5t-2 -11t-13.5 -9.5t-12.5 -5zM69.5 79.5q2.5 -1.5 10.5 -2.5t12 -5t4 -9.5t-1.5 -7t-30.5 22.5q3 3 5.5 1.5zM109.5 138q2.5 2 18.5 -3
q1 -30 0 -45.5t-6.5 -34t-15.5 -33t-18 -21.5t-9.5 -6t3 6.5t16.5 26.5t15 43t2.5 39t-4.5 21.5t-1.5 6.5zM217.5 135q-6.5 -1 -15.5 -12t-11.5 -10.5t1.5 12.5t3 14.5t-75 -12.5v10q13 0 26.5 3t26.5 5.5t18.5 5.5t9.5 2.5t13.5 -6.5t9.5 -8.5t-6.5 -3.5zM147.5 202.5
q1.5 1.5 7 0t11 -4t5.5 -6.5t-1.5 -9.5t-4 -34.5t-2.5 -56h-11q3 83 1.5 92t-4.5 13t-1.5 5.5zM155.5 27q-16.5 -13 -31 -19t-15 -4t11.5 9t27 22t20.5 30.5t5.5 19.5t-1.5 5.5t-19 -2.5t-20.5 -4t-11 -3v11q11 0 19.5 1.5t19 4.5t15 5t6.5 2t9.5 -5t7 -8t-3.5 -5t-13 -24.5
t-26.5 -35.5zM130 75q8 1 13.5 -2.5t21 -18.5t33.5 -26t37 -17.5t19 -8.5t-12 -4t-23.5 -2.5t-17.5 5.5t-22.5 23.5t-48.5 50.5z" />
    <glyph glyph-name="uni7B56" unicode="&#x7b56;" 
d="M87 146q0 -6 -1.5 -7.5t-10.5 4t-10 9t-1.5 5.5t4.5 2t12 -3.5t7 -9.5zM175.5 161.5q2.5 -5.5 1 -8t-11 0.5t-14 7.5t-5 6t4.5 3t13.5 -1t11 -8zM60 202q-2 5 1 6t8 -1.5t8 -6t1.5 -7.5t-12.5 -21t-24.5 -29t-15 -10t7 12.5t15.5 22t10 20.5t1 14zM96.5 175
q-14.5 -3 -38.5 -3l3 8q16 1 28.5 5.5t17 1t4.5 -6t-14.5 -5.5zM139 215.5q3 1.5 11 -3t8 -7.5t-4 -7t-7.5 -11t-16.5 -20t-16 -12.5t7.5 15.5t15 26t2 14.5t0.5 5zM199 198.5q8 -2.5 8 -5.5t-13.5 -5.5t-53.5 -2.5l5 8q8 0 27 4t27 1.5zM72.5 121.5q9.5 1.5 36 7.5t34.5 6
t12 -1.5t4 -4t-12 -5t-38.5 -6.5t-32 -4t-9.5 1.5t-4 3t9.5 3zM115 142.5q6 -2.5 3.5 -9.5t-3 -18.5t-0.5 -53t-0.5 -52.5t-1.5 -25.5t-3 -14.5t-5.5 8.5t-4 11t2 14.5t2.5 67.5t-1 61t-4 7.5t-1.5 4.5t6 2t10.5 -3zM47 88.5q0 3.5 6.5 3.5t10.5 -1.5t5.5 -18.5t-2.5 -17
t-7.5 14.5t-8 15t-4.5 4zM161.5 111q2.5 0 11.5 -5t8.5 -8t-4 -4.5t-5.5 -14.5t-9 -20.5t-10 -7t-4 5.5t-8 9.5t-6.5 6.5t9.5 0t11 1.5t3 12.5t-0.5 10.5t-13.5 -1t-81 -15.5v9q21 3 56 10t37.5 9t5 2zM76.5 27.5q-18.5 -15.5 -39.5 -24t-23 -8t21.5 15t40 30.5t32.5 43
l2 -23q-15 -18 -33.5 -33.5zM250 8q0 -2 -8 -4t-24 -3.5t-21.5 -1.5t-13.5 4t-73 61l1 7q40 -28 50.5 -34t25 -11t39 -10.5t24.5 -7.5z" />
    <glyph glyph-name="uni7684" unicode="&#x7684;" 
d="M50 111h-7q16 34 21 46t2.5 17.5t0 7.5t11 -1.5t10.5 -7.5t-5 -14.5t-33 -47.5zM25 112.5q1 4.5 18 0.5q5 -77 5 -88t-1.5 -15t-5 -0.5t-6 46.5t-7 47.5t-3.5 9zM101 39.5q0 -6.5 -3 -20t-6.5 -13.5t-5.5 7t1 35t2 45t-3 19.5t-18 -2.5t-31 -5v8q13 0 28.5 5t19 8t10 0.5
t10.5 -5.5t4.5 -5.5t-2.5 -5t-4.5 -33.5t-1.5 -37.5zM69 81q8 0 8 -4t-9 -6.5t-28 -2.5v5q21 8 29 8zM43 23v10q43 3 51 3v-8q-12 -2 -25 -3.5t-26 -1.5zM134 93q1 1 8 -1.5t13.5 -7.5t6.5 -14.5t-1 -11t-4 -1.5t-13.5 15t-10.5 17.5t1 3.5zM158 176.5q3 12.5 0.5 17t0 5.5
t8 0t11 -4.5t5.5 -7t-16 -31t-34.5 -47t-21 -19.5t11 19t23 37t12.5 30.5zM201 140q3 0 8.5 -3t10 -7t5 -6.5t-3.5 -5.5t-4.5 -22.5t-3 -46t-7.5 -43t-12.5 -23t-10.5 -6.5t-5 9.5t-12 18.5t-9 11t11 -2t14 -4.5t7 3.5t5 14.5t4 33.5t2 31v17.5t-2.5 12t-16 0t-42.5 -2.5v8
q54 6 56.5 9.5t5.5 3.5z" />
    <glyph glyph-name="uni5730" unicode="&#x5730;" 
d="M211.5 0q-15.5 -3 -29.5 -3.5t-31 1t-26.5 6.5t-15 16.5t-5.5 29.5t-1 43.5t-4 28.5t-3 6t4 3.5t11 -5t5.5 -14.5t-1.5 -16t-0.5 -21.5t0.5 -26.5t3 -18.5t11.5 -12t33.5 -5.5t38.5 3.5t19.5 8t7 26t4.5 21.5t5.5 -19.5t8 -27t-7 -14.5t-27.5 -10zM132.5 200.5
q0.5 3.5 6 3t11.5 -4t6.5 -6t-1 -15.5t-1.5 -56t-1.5 -63.5t-6 -20t-4.5 59t-1.5 75t-5 20.5t-3 7.5zM182 91q2 11 2 18.5t-1.5 8.5t-42.5 -24.5t-45 -27t-7 -1.5t-7 2t-4 5t7.5 4.5t20 8.5t43.5 25t34.5 22.5t5.5 4.5t10.5 -5.5t8.5 -8.5t-3 -6t-4.5 -13.5t-5 -25t-9.5 -24
t-9 -9t-5 6t-7.5 10.5t-5.5 7.5t6.5 0.5t9 -2t4.5 6t4 17zM85.5 100.5q-2.5 -1.5 -26.5 -9.5t-29 -8.5t-8 2t-3 4t28 12t30.5 10.5t6.5 -2.5t4 -4.5t-2.5 -3.5zM41.5 171.5q0.5 3.5 4.5 3.5t12.5 -5.5t8.5 -8.5t-1 -8.5t-2.5 -23.5t-2.5 -90l-12 -2q2 53 1 79.5t-1.5 36
t-4 12.5t-3 6.5zM15.5 14.5q-7.5 5.5 -7.5 8.5t6 3.5t10 2t33.5 16t30.5 11.5t-28.5 -25t-33 -22t-11 5.5z" />
    <glyph glyph-name="uni70B9" unicode="&#x70b9;" 
d="M62 99.5q-1 3.5 3.5 4.5t19.5 -3q5 -52 4 -53.5t-4 -1.5t-8.5 21.5t-9.5 25t-5 7zM125 105h-13q0 67 -2 75.5t-6 13t-1 7.5t14 -2.5t12 -8t-0.5 -8t-2.5 -13.5t-1 -64zM120 150v9q11 0 27 6.5t25 6.5t12 -4.5t2 -6t-24 -6.5t-42 -5zM178 113q11 -6 11 -9t-7 -6t-19 -33
h-13q5 19 5 28t-1.5 10.5t-31 -3.5t-50.5 -5v7q8 0 32 4t35.5 6t16.5 5t8 2.5t14 -6.5zM161 73q4 0 8 -1.5t4 -4t-4 -4t-84 -9.5v8q9 1 40.5 6t35.5 5zM21 -9.5q-3 5.5 -3 9.5t5.5 10t9 17.5t5.5 12.5t4 -1.5t2 -14t-3 -20t-7.5 -14t-7 -5.5t-5.5 5.5zM81.5 28
q6.5 0 13.5 -4.5t9 -10.5t0 -10t-5 -4t-14.5 13t-10.5 14.5t7.5 1.5zM157 7q-3 -3 -5 -3t-13 14.5t-11 16t6 1.5t14 -5.5t10 -13t-1 -10.5zM223 -4q-2 0 -24.5 21t-22.5 22.5t5.5 1.5t13.5 -2.5t20 -10.5t13.5 -17t-1 -12t-4.5 -3z" />
    <glyph glyph-name="uni6BB5" unicode="&#x6bb5;" 
d="M80 179.5q3 4.5 2 9t3 5t11.5 -5t6 -9.5t-47.5 -25l-4 4q26 17 29 21.5zM55 132q33 11 35.5 11t6.5 -1.5t4 -4t-12 -6.5t-34 -4v5zM56 97q8 2 17.5 5t17.5 3t8 -2.5t-8 -6.5t-35 -7v8zM128 186q3 1 5.5 0t10.5 -2q1 -36 -4.5 -52t-16.5 -26t-14.5 -10t-3.5 1.5t7.5 8.5
t13 21t5.5 31.5t-3 22t0 5.5zM183 139q4 -4 15.5 -2t16.5 2t8.5 -2.5t3.5 -5t-8 -5t-23 -2.5t-21.5 6t-5 25.5t0 23.5t-11 1t-22.5 -3v7q32 6 34.5 9.5t6.5 3t9.5 -4.5t5.5 -6t-5 -6t-6.5 -20.5t2.5 -20.5zM37 50q14 4 43 13.5t30 6.5t-43 -22t-48.5 -19.5t-10 4.5t-5.5 8.5
t6 3t10 0.5t18 5zM144.5 23.5q-19.5 -11.5 -39 -16.5t-20 -3.5t21 11.5t36 22t21 28t6.5 22.5t-2.5 7.5t-20.5 -4.5t-21.5 -5t-7.5 3.5t-2 3.5l24 6t25 8.5t5.5 3t13 -5t10.5 -7.5t-3.5 -5.5t-5.5 -12.5t-11.5 -27t-29 -29zM42.5 167q5.5 0 15.5 -3q0 -2 1.5 -31.5t1.5 -83
t-2 -61.5t-4 -8t-5 7t-3 12t1 24t2.5 35t-1 56t-7.5 44t-5 6.5t5.5 2.5zM117 76q11 0 31 -16t44 -29.5t42.5 -17.5t18.5 -6.5t-16 -5t-29.5 -2.5t-29.5 18.5t-61 58.5z" />
    <glyph glyph-name="uni961F" unicode="&#x961f;" 
d="M30.5 172q-0.5 3 2 4t15.5 -4q0 -133 -2.5 -155t-5 -22t-6 11.5t-3.5 15.5t2.5 18.5t2.5 66t-2.5 57t-3 8.5zM88.5 81.5q-4.5 -5.5 -7.5 -5t-4.5 6t-9.5 11.5t-6.5 7.5t9.5 0t9 -0.5t0 8t-5.5 16.5t-4 12.5t7 17t5 15.5t-16 -2.5t-22.5 -4v8q16 0 25 4t12 6.5t5.5 2.5
t11 -5.5t9.5 -8t-4.5 -6t-14.5 -15t-9 -14.5t5.5 -10t8.5 -15.5t2 -16t-5.5 -13zM139 187.5q2 2.5 13 -2t11 -7t-1 -11t-5 -32t-11.5 -47t-24 -42.5t-34 -28.5t-19 -7.5t9 9t26.5 25.5t23.5 37t12 43t5 39t-3.5 18t-2 6zM253 24.5q0 -1.5 -14 -3t-25 0t-16.5 6.5t-53.5 80
l3 11q11 -17 29 -38.5t32.5 -31t29.5 -16.5t15 -8.5z" />
    <glyph glyph-name="uni7518" unicode="&#x7518;" 
d="M89 80q1 -15 -0.5 -49.5t-4 -34.5t-5.5 4t-5 10t0 18t1.5 35.5t-1 39t-2.5 33t-4 25.5t-5.5 11t-1.5 5.5t14 -1.5t13 -7.5t-0.5 -7.5t-0.5 -35t2 -46zM247 127q0 -3 -33.5 -3t-59 -2.5t-66.5 -8t-53 -8t-17.5 -1t-9.5 5.5t-4 5t9.5 1.5t26.5 2t38.5 4l43 5t57 8.5t40.5 6
t16.5 -6t11.5 -9zM149.5 205q-0.5 4 6 2.5t15.5 -8t8.5 -9t-3 -7t-3.5 -20.5t-1 -71.5t-2 -70.5t-6 -23t-6.5 -8.5t-4 8t-10.5 24.5q11 1 12.5 5.5t2.5 39.5t1 59t-1 46t-4.5 25.5t-4 7.5zM82 71v8q11 0 27 4t20 4t9 -2.5t5 -5t-17 -5.5t-44 -3zM131 33q4 0 9.5 -2.5
t8.5 -8.5q-8 0 -67 -5v11q13 0 29 2.5t20 2.5z" />
    <glyph glyph-name="uni516C" unicode="&#x516c;" 
d="M91.5 64q16.5 24 14.5 29.5t1.5 6t10.5 -6t7 -9.5t-24 -29.5t-22.5 -28t34.5 2.5t44 4l1 -6q-61 -11 -73.5 -14t-18 -7t-7.5 -4t-5.5 6t-3.5 9t6 6t12.5 10t23 31zM136 56q0 4 1 4.5t6.5 -2.5t15 -10t15 -16.5t5.5 -16t-3 -11.5t-5.5 -5t-18.5 26.5t-16 30.5zM1.5 42.5
q-1.5 1.5 10.5 12.5t28 30.5t26 39.5t7.5 25t0.5 7t12 -3t9.5 -9.5t-15 -28t-32.5 -40t-31 -26t-15.5 -8zM113.5 196.5q6.5 0.5 13.5 -4t23 -30t32 -40t44 -28t26.5 -15.5t-26 -1t-32 3.5t-14 12t-32 50t-33.5 44t-8 6t6.5 3z" />
    <glyph glyph-name="uni5171" unicode="&#x5171;" 
d="M179 143q5 0 9 -1.5t4 -4t-10.5 -6.5t-60 -12t-52 -8t-10.5 2.5t-8 4t10.5 3t61.5 12t56 10.5zM94 46.5q4 0.5 11.5 -3t8.5 -9t-15 -20.5t-36 -26t-21.5 -9t9.5 9.5t22 19.5t16.5 19.5t3 13t1.5 6zM157.5 41q13.5 -3 24 -10t15 -14t5.5 -12.5t-0.5 -9.5t-5.5 -4t-29 24
t-24 26.5t14.5 -0.5zM78 177.5q1 2.5 11.5 0t12.5 -5.5t0.5 -17.5t-1.5 -91.5l-11 -1q1 18 -1 54.5t-3.5 45t-5 11t-2.5 5zM158 174q-3 -15 -9 -106h-11q3 56 3.5 83.5t-0.5 34.5t-4.5 10t-2 5.5t12 -1t12.5 -7.5t-1 -19zM201 85.5q12 1.5 18.5 0t13.5 -6t7 -8t-17.5 -3.5
t-53.5 -2.5t-90.5 -12t-57.5 -9.5t-9.5 5.5t-4.5 6t10.5 1.5t26.5 4t61 9.5t63.5 10t32.5 5z" />
    <glyph glyph-name="uni6838" unicode="&#x6838;" 
d="M32.5 116q-4.5 0 -9 1.5t-5.5 6.5q8 1 34.5 7t33.5 6t11 -1.5t4 -3t-32 -9t-36.5 -7.5zM81 194.5q0 -2.5 -2 -8t-3.5 -33t-1.5 -40.5t-2 -67.5t-5 -54.5t-7.5 9t-4.5 10.5t3.5 19.5t5 91t-1.5 75.5t-3 5.5t7 2t11 -4t4 -5.5zM98 78q0 -8 -2.5 -8t-14 11.5t-12.5 15.5
q15 0 22 -5.5t7 -13.5zM147.5 186.5q1.5 1.5 13 1.5t17 -6.5t5.5 -12t-2.5 -7t-13 5t-16 10t-5.5 5.5t1.5 3.5zM197 148q11 3 20 3t14.5 -4t5.5 -5.5t-2.5 -2.5t-34.5 -4t-55 -6.5t-25.5 -3.5t-6.5 2.5t-4 5.5q18 2 47.5 7t40.5 8zM167 87l3 -8q-32 0 -42.5 -3.5t-12 -2.5
t-1.5 7.5t4.5 8.5t13.5 12t19 34q14 -13 11 -17t-16 -16t-11.5 -13.5t32.5 -1.5zM180 122.5q3 1.5 10 -3t6.5 -7.5t-4 -9t-14.5 -20.5t-28 -32t-41 -29.5t-25.5 -10.5t2.5 4t24 16t38.5 35.5t26 35t5 16.5t0.5 5zM192.5 74q-2.5 2 1.5 4t10 -4t5 -8.5t-14 -19.5t-29 -28.5
t-31.5 -18t-16.5 -5t18 13.5t32 26t20 26t4.5 14zM222 9q4 -11 1 -13.5t-7 0t-41 37.5q13 0 28 -6.5t19 -17.5zM19.5 57.5q17.5 18.5 46.5 68.5q0 -5 4 -20q-9 -17 -24 -34t-28 -27t-14.5 -8t16 20.5z" />
    <glyph glyph-name="uni5408" unicode="&#x5408;" 
d="M28.5 78.5q-23.5 -15.5 -25.5 -13t12.5 13t37.5 36t38 52t11.5 31t1 5.5t12 -4t8.5 -8t-13 -25.5t-36.5 -47t-46 -40zM160.5 118q-18.5 24 -53.5 62l8 5q3 -3 20 -21.5t36.5 -34t49.5 -28t30 -14t-16 -2.5t-26.5 -1t-15 1t-9.5 5t-23.5 28zM70 93.5q0 1.5 29.5 9.5
t38.5 8t12 -4.5t-26.5 -11t-35 -6.5t-12 1.5t-6.5 3zM61 55q7 -1 10 -2t7 -28t4 -32.5t-1.5 -6.5t-4 -0.5t-6 14.5t-7 27t-7 17t-3 8t7.5 3zM149 4h-13q9 32 9 37.5t-2.5 8t-24.5 -0.5t-53 -7v10q13 0 42 4.5t35 8t9.5 2t9 -5.5t9.5 -8t4 -6t-5 -4t-20 -39zM155 8
q5 -4 5 -5.5t-4 -2.5t-17 -1t-64 -6v11q5 0 40 4t40 0z" />
    <glyph glyph-name="uni5212" unicode="&#x5212;" 
d="M46.5 186q1.5 2 6.5 1t12.5 -4.5t7.5 -6t-1.5 -6t3.5 -30.5t15 -55t24 -46t19 -19t8.5 12t5.5 12.5t3 -15t3 -21.5t0.5 -9.5t-11.5 -0.5t-27 18.5t-29.5 46t-18.5 53t-9 41t-8 22.5t-3.5 7zM122 156q0 -8 -4 -8t-14.5 10.5t-10.5 12t7 1.5t14.5 -4t7.5 -12zM167.5 144
q1.5 -3 -0.5 -15.5t-2 -35.5t-1.5 -28t-2.5 -5t-4.5 2.5t-3 38.5t-2.5 42t-1.5 8t9 -1t9 -6zM186 4q-11 9 -11 11t12.5 -1t15 -1t3.5 21t0 74t-3 68.5t-5 18t-1 7t7.5 0t10.5 -6.5t5 -6.5t-2 -9.5t-1 -66t1.5 -86.5t-5 -37t-8.5 -9.5t-5.5 7.5t-13.5 16.5zM47 93.5
q-11 -3.5 -12.5 -3.5t-6 2.5t-4.5 4t15 6.5t32.5 12.5t25 12t10 5.5t9.5 -0.5t7 -4t-16.5 -11t-32.5 -14.5t-27 -9.5zM117 103.5q3 -1.5 7 -5.5t4 -8t-21 -27t-40 -34.5t-32.5 -15.5t-14 -2.5t26.5 18t39 30.5t19 24.5t5.5 14.5t1 5.5t5.5 0z" />
    <glyph glyph-name="uni4F19" unicode="&#x4f19;" 
d="M18 77q-14 -10 -14.5 -8t19 21.5t32 40t19.5 37t4 21t1 6t12 -5t8 -9.5t-17 -31t-33.5 -45t-30.5 -27zM60 75.5q1 29.5 -0.5 35t1.5 21.5q6 -4 8.5 -12t2.5 -14t-1.5 -44.5t-4.5 -56t-5.5 -17.5t-5.5 8t-3 10.5t2 9.5t3.5 18.5t2.5 41zM105.5 93q-6.5 9 -8 18.5t0.5 10.5
t7.5 -2t10 -8t4.5 -11.5t-1.5 -11.5t-4 -5t-9 9zM165.5 191.5q1.5 -2.5 0 -6.5t-1.5 -19t-4 -49.5t-16 -56.5t-23.5 -34t-27.5 -21t-17 -7t10.5 10.5t25 24.5t23.5 42.5t12 53.5t1.5 43.5t-4.5 20t-2 6t12 -1t11.5 -6zM248 8.5q0 -1.5 -13.5 -2.5t-21 -0.5t-12.5 3t-54 84.5
l2 10q16 -24 33.5 -45.5t41.5 -34.5t24 -14.5zM170 111.5q-2 1.5 8.5 9.5t14 13t1.5 8t-0.5 4.5t7.5 0t12 -5.5t5.5 -8.5t-23.5 -13.5t-25 -7.5z" />
    <glyph glyph-name="uni673A" unicode="&#x673a;" 
d="M78 29.5q0 -37.5 -2.5 -42.5t-4.5 -4.5t-5 12t-3 15t3 32.5t3 92t-4 68.5t-1 7t11.5 -2.5t9 -8t-2 -12.5t-3.5 -64t-1 -93zM103 144q7 0 9.5 -2.5t1 -5.5t-14.5 -7t-18.5 -4t-23 -4t-26.5 -4t-14.5 3t-3 3.5t17.5 4t40 10t32 6.5zM11.5 38q8.5 8 24 29t36.5 64l2 -27
q-17 -30 -31 -45.5t-26.5 -25t-13 -6.5t8 11zM72 99q11 0 19 -1.5t12 -5.5t4 -10.5t-1.5 -8t-11.5 5t-22 20.5zM89 5q-1 2 8.5 12t20 31.5t12.5 43.5t1.5 35.5t-3.5 21t-1 8.5t17 -4q0 -16 -0.5 -42.5t-7 -46t-16.5 -33t-20 -21t-11 -5.5zM176.5 163.5q2.5 0.5 11 -4t8 -7
t-4.5 -4.5t-8 -21.5t-5.5 -33t0 -25t5.5 -18.5t10.5 -11.5t16 -5.5t15 1t6.5 7.5t2 22t3.5 16t5.5 -21t8 -26.5t-4 -11t-27.5 -5t-30.5 8t-16 19t-5.5 25t2.5 46t2.5 33.5t-15.5 0t-20 -2.5v8q32 4 35 7t5.5 3.5z" />
    <glyph glyph-name="uni8BA1" unicode="&#x8ba1;" 
d="M55.5 15q-2.5 0 -5 3t-4.5 7t-2 7t5.5 9.5t6.5 16.5t3 31.5t1 23t-17 -5.5t-21 -6t-9.5 5.5t-2 6t10.5 1.5t22 5t20 10.5t8.5 5.5t8 -4t5.5 -6.5t-5 -7.5t-8 -35t-1.5 -31t21.5 10.5t21.5 10t-22 -21t-28.5 -27.5t-7.5 -8zM64 193q8 0 16 -4t10.5 -8t2.5 -10.5t-1 -8
t-5 -1.5t-18 14t-13.5 16t8.5 2zM218 113q-20 0 -33.5 -1.5t-40 -6.5t-29.5 -5t-9.5 2.5t-6.5 4t16 4t52 10.5t48 8t18 -6t5.5 -8t-20.5 -2zM171.5 70.5q0.5 -53.5 -1 -76t-4.5 -22.5t-5.5 18.5t-3 107t-5.5 96.5t-4.5 11t11.5 1t13 -6t0.5 -9t-1.5 -36t0.5 -84.5z" />
    <glyph glyph-name="uni4EF7" unicode="&#x4ef7;" 
d="M84 90.5q-12 -7.5 -13 -6t16 19.5t31 42t18.5 36.5t2 17t1.5 4.5t11.5 -5t7 -9.5t-17 -32t-31 -43.5t-26.5 -23.5zM189 143q17 -13 40.5 -22.5t23 -11.5t-21 -3.5t-23.5 -0.5t-25.5 26t-41.5 49l4 4q27 -28 44 -41zM119.5 73.5q1.5 21.5 -1.5 24.5t-2 5.5t7 1.5t10.5 -6
t4 -8t-4.5 -25t-12.5 -38t-19 -25t-12 -8t6 11t15 28t9 39.5zM156 116q1 3 9.5 1.5t10.5 -4t2 -24t-0.5 -54.5t-3 -46.5t-5 -12.5t-4 19t-1.5 65t-4.5 50t-3.5 6zM52 137.5q12 19.5 16.5 32t1 15.5t-1.5 5.5t7 1t10.5 -5.5t5.5 -8.5t-14.5 -27t-26 -36.5t-28 -26.5
t-18 -10.5t17 21.5t30.5 39zM63.5 110.5q0.5 -3.5 0.5 -55t-2.5 -62t-5 -10.5t-5 6.5t-2.5 8t2 18.5t2.5 52t-3.5 58q6 -2 9.5 -7t4 -8.5z" />
    <glyph glyph-name="uni9636" unicode="&#x9636;" 
d="M27 178q0 3 6.5 1t12.5 -2q0 -133 -3 -155t-5.5 -22t-5.5 11.5t-3 14t3 24t3 67t-4 52t-4 9.5zM167.5 112.5q8.5 -4.5 9 -7.5t-1 -10.5t-1.5 -33t1 -45.5t-1.5 -30.5t-4 -10.5t-4 5t-4 10.5t0 18.5t0.5 54.5t-4.5 46.5t-1 6t11 -3.5zM83 91.5q11 13.5 26 37.5t23.5 47
t5 27t0 5t13 -4.5t6.5 -12t-16 -32t-28.5 -46t-27 -30t-12.5 -7.5t10 15.5zM190 118q-12 12 -20 21t-29 39l3 5q15 -18 39 -36t47 -25.5t22.5 -10t-21 -4.5t-25 -1.5t-16.5 12.5zM81.5 -3q-1.5 1 10 12.5t18 25t9 34t-1.5 26t-2 8t9 -0.5t9.5 -5.5t1.5 -11t-4 -25.5
t-12 -31.5t-22.5 -23.5t-15 -8zM98 179.5q0 -2.5 -5 -5t-13 -13.5t-8 -15t6.5 -19.5t3 -23.5t-6 -8t-5.5 4t-11.5 9t-7.5 7t9 0t10 0.5t-2 16t-4 16t5 13.5t4 12t-13 -1.5t-23 -2.5v8q16 0 25.5 4t12.5 7.5t5.5 3.5t10 -5t7.5 -7.5z" />
    <glyph glyph-name="uni4ECB" unicode="&#x4ecb;" 
d="M117 208.5q5 -3.5 8 -6.5t3 -6t-18 -33.5t-36.5 -50t-41.5 -33t-25 -11.5t15.5 14.5t34.5 30.5t31 42.5t18 35t1 15t1 5.5t9 -2.5zM234 104.5q20 -6.5 20 -9.5t-16 -4t-24.5 -1.5t-14 2t-38.5 36.5t-38.5 40t-16.5 16l5 5q28 -25 47 -41.5t37.5 -26.5t38.5 -16.5z
M128.5 118.5q1.5 2.5 8.5 0.5t11 -5t4 -5t-1.5 -8.5t-1.5 -39.5t1.5 -50.5t-1 -28t-5.5 -10.5t-6 9t-3 10.5t1.5 15t0.5 57.5t-5.5 48t-3 6.5zM52.5 5q-11.5 -7 -13 -6t11 13.5t20.5 28.5t11.5 35.5t0.5 23.5t0 5.5t10.5 -3t8.5 -7.5t-1 -7t-7 -24t-17.5 -36t-24 -23z" />
    <glyph glyph-name="uni5FEB" unicode="&#x5feb;" 
d="M64 69.5q0 -44.5 -2 -67t-5.5 -22.5t-6 9t-3 12t2 22t3.5 50.5t0.5 71t-5 44t-1.5 7t12 -2t9.5 -7.5t-0.5 -8t-2.5 -34.5t-1.5 -74zM61 132q11 1 17.5 -1t10 -5.5t2.5 -8t-3.5 -6t-4.5 -1.5t-22 22zM179 84h-8q9 50 7 52t-32.5 -5t-34 -7t-8 4t-2 4.5t20 3t34 6.5t20 6.5
t6.5 2t12 -6.5t8.5 -9t-5 -5t-18.5 -46zM113 45q12 23 16.5 47t6 61.5t-2.5 40.5t-1.5 6t12.5 -2t10.5 -7.5t-1 -6.5t-4 -35t-6 -52t-9 -36t-17 -31t-28 -27t-18 -9t14 15t27.5 36zM14.5 71q-3.5 6 -3.5 8t3.5 8t6.5 17.5t3 15.5t1.5 4t5 -5t3 -19.5t-5.5 -24.5t-7.5 -10
t-6 6zM99 80.5q21 1.5 67 8.5t49.5 7t12.5 -4t9 -7t-25 -3t-50.5 -3t-48.5 -7t-27 -3.5t-8.5 5t-2 5t23.5 2zM175 16.5q-14 19.5 -41 61.5l7 4q9 -14 26 -34t46 -33t29 -14.5t-20 -4t-26.5 -1t-20.5 21z" />
    <glyph glyph-name="uni4E50" unicode="&#x4e50;" 
d="M61 169.5q1 3.5 19 -2.5q0 -19 -5.5 -39t-4.5 -23t8 -1.5t44.5 9.5t49.5 11t13.5 3t10.5 -4t9 -8t-13.5 -4.5t-24 -1t-51.5 -9t-50 -15t-12.5 -6.5t-5.5 8.5t-1 11t5 4.5t7 8t5.5 24.5t-1 24.5t-2.5 9.5zM47 10q-3 0 -5 6.5t-2 10t7 11t17 33.5q3 0 5 -5.5t2 -12
t-5 -17.5t-10.5 -18.5t-8.5 -7.5zM213 41.5q6 -8.5 6 -15t-1.5 -8t-4 -1.5t-27 20.5t-31.5 30.5q10 0 31 -9t27 -17.5zM120.5 151q5.5 -1 9 -3t5.5 -5t0.5 -9.5t-1.5 -68t-5.5 -72t-9.5 -10.5t-5.5 8.5t-13 16t-11.5 9.5t12 0t15.5 0.5t4 24t1 34.5t-0.5 38.5t-5 29t-2.5 6
t7 1.5zM75 159v8q47 11 61 17.5t11 10t1 4t11.5 -2.5t12 -5.5t4.5 -6t-22.5 -9.5t-78.5 -16z" />
    <glyph glyph-name="uni7406" unicode="&#x7406;" 
d="M47.5 162.5q24.5 6.5 32.5 6.5t12 -1.5t4 -4.5t-3 -4t-27 -6t-29 -5.5t-9.5 2t-4.5 4.5t24.5 8.5zM72 144q0 -3 -2.5 -26t-2.5 -68l-11 -2v89t-10 22q26 -12 26 -15zM93 109q0 -4 -20 -9.5t-30.5 -5.5t-12 1.5t-1.5 3t20 8t27 8t12 0t5 -5.5zM108 148.5q-2 13.5 -5.5 20
t0 7.5t6.5 -1.5t11 -2.5q0 -13 3 -46.5t3 -37.5t-4 -4t-5 4t-4 25.5t-5 35zM164 129.5q-23 -3.5 -25.5 -3.5t-10.5 6q45 11 48 11t7 -2.5t4 -5t-23 -6zM160 89v-76h-11q2 140 -4 159q18 -8 19.5 -11.5t-1.5 -6.5t-3 -23.5v-41.5zM120 96q14 1 39.5 5t31 3t4.5 -9
q-16 -1 -72 -7zM155 64.5q19 4.5 24.5 4.5t9.5 -2t5 -6t-8.5 -4t-32.5 -4.5t-26.5 -4.5t-10 4t-5 6t13 2t30.5 4.5zM224 10l-30 1.5t-39.5 -2t-45 -5.5t-19.5 -3t-11 4t-7 5.5t36 4t71.5 7t40 4t13 -5t10 -8t-18.5 -2.5zM210 116.5q-4 -15.5 -8 -24t-5.5 -8.5t-4.5 5.5t-3 8
t3 9.5t8 33.5t1 29.5t-9 3t-36 -4t-43 -5l-1 8q8 0 26.5 2.5t34.5 5t20 5.5t7 3t15 -8t12 -11.5t-4 -6t-6.5 -16.5t-6.5 -29.5zM40.5 26.5q-5.5 -5.5 -11 -5.5t-12 7t-6.5 10t6.5 2.5t10 0.5t10 4t34.5 15.5t32 13t4 -1.5t-31 -21t-36.5 -24.5z" />
    <glyph glyph-name="uni4F8B" unicode="&#x4f8b;" 
d="M29 90.5q-16 -12.5 -17 -10.5t15.5 20t29.5 38.5t17.5 32.5t2 16t2 5t11 -5t6.5 -9t-10.5 -20.5t-25.5 -36t-31 -31zM71.5 120q1.5 -4 0 -35.5t-2.5 -60.5t-3.5 -29.5t-7 10t-2.5 20.5t3 34t1 37t-3 34q13 -6 14.5 -10zM105.5 143.5q-3.5 0.5 -9.5 5.5q8 3 28 8t30.5 5
t13.5 -2.5t1.5 -4.5t-12 -4t-15.5 -2.5t-19 -3t-17.5 -2zM90 85.5q11 12.5 20.5 31t10.5 33.5q15 -10 15 -12.5t-5.5 -11.5t-15.5 -24t-22 -23.5t-13 -7t10 14zM112 108q8 0 16.5 1t11 3t4.5 2t8 -6t6 -8.5t-3 -3.5t-8 -15.5t-20 -34.5t-31.5 -31t-18.5 -9.5t10.5 12.5
t26.5 29.5t19.5 34.5t3 18t-9.5 1t-15 -1v8zM172.5 130.5q1.5 1.5 6 -0.5t7.5 -6t1 -15.5t-1 -27.5t-1 -25t-4 -9t-4 6l-3 9t1 16.5t1.5 27.5t-3 18.5t-1 6zM204 -20.5q-3 0.5 -2.5 8.5t-10 17.5t-8 10.5t10.5 -2.5t12 -1t4 84.5t-5.5 85.5t-4.5 6t5.5 2t12 -5t7 -7.5
t-1.5 -7.5t-1 -49.5t1 -72.5t-1 -42.5t-8.5 -21t-9.5 -5.5zM93 82q13 0 18.5 -4t5.5 -10.5t-1.5 -8t-22.5 22.5z" />
    <glyph glyph-name="uni9716" unicode="&#x9716;" 
d="M38 128.5q-2 5.5 -2 7.5t6 8.5t11 18.5t6.5 12.5t4 -5.5t1.5 -11t-4.5 -14t-9 -15.5t-8.5 -6.5t-5 5.5zM230 159q0 -3 -9 -3t-20 -7.5t-12.5 -6.5t5 13t5.5 13.5t-9 1.5t-28 -3t-57.5 -8t-45.5 -5v8q19 0 36 2.5t56.5 8.5t43 8t7 2t16 -10.5t12.5 -13.5zM120 148
q0 13 -2 48h13q0 -69 -2.5 -80t-5 -11t-4.5 6t-0.5 15t1.5 22zM98 141q3 -3 1.5 -7t-12 1t-10.5 9q18 0 21 -3zM147 148q11 5 19 2.5t8 -8t-6.5 -4t-20.5 9.5zM147 126q8 3 12 3t9.5 -4t4 -8t-13.5 0t-12 9zM69 119q21 0 24 -2.5t2.5 -7t-3.5 -4.5t-13 5t-10 9zM41 55
q-4 0 -8 2.5t-4 4t5.5 1.5t33.5 6.5t34.5 6.5t6.5 -4t-24 -9t-32 -6.5t-12 -1.5zM85 22.5q0 -29.5 -1 -37.5t-4 -8t-5.5 9.5t0 25.5t2.5 46t-3.5 33t-2.5 6t10 -1t9.5 -7t-1 -6.5t-3 -17t-1.5 -43zM67.5 36q-14.5 -17 -32.5 -28t-19.5 -9.5t13 12.5t48.5 54q6 -8 5.5 -10
t-15 -19zM83 47q13 0 18.5 -2.5t7 -8t0 -7t-7 1.5t-18.5 16zM187 92q8 0 12 -1.5t4 -4t-14.5 -5t-38.5 -6.5t-25.5 -4t-5.5 1t-4 2.5t4 3t32 8t36 6.5zM144.5 108.5q2.5 2.5 10.5 -1.5t8.5 -6.5t-1.5 -6.5t-2 -53.5t-2.5 -57.5t-4.5 -7.5t-4.5 10t-2.5 11.5t2 11.5t2.5 39.5
t-1 42t-4.5 14t-0.5 4.5zM167 197.5q-4 -1.5 -31 -5.5t-29.5 -4t-10.5 3t-6 3.5t10 1.5t27.5 6t27.5 5t12 -4t0 -5.5zM124.5 41q9.5 13 22.5 40l8 -9q-14 -27 -25 -39.5t-21 -19t-11.5 -5t8 10.5t19 22zM155 62v6q24 -19 36 -26.5t36 -16t24 -10.5t-10.5 -3t-19 -2t-14 0.5
t-52.5 51.5z" />
    <glyph glyph-name="uni9886" unicode="&#x9886;" 
d="M242 175q0 -2 -9 -4t-17 -2t-39 -4t-36 -4t-10.5 2.5t-5.5 5.5q5 0 20 1.5t41.5 7.5t33 6t14.5 -3.5t8 -5.5zM162 121h-7q14 37 11 48q16 -8 17 -12.5t-21 -35.5zM134.5 69q1.5 14 1.5 23.5t-2.5 18.5t-1.5 12.5t14 0.5q0 -48 -1 -66.5t-2.5 -18.5t-5.5 4.5t-4 8
t1.5 17.5zM220.5 129.5q5.5 -3.5 5.5 -5.5t-2.5 -4.5t-2.5 -38t-2.5 -40.5t-5.5 -4t-5.5 9t-1 15t1.5 32t-4 28.5t-63 -6.5v9q21 0 39 4t20 6.5t4.5 2.5t6.5 -2t9.5 -5.5zM121 -8.5q-19 -8.5 -20 -6.5t8 6.5t26 18.5t25 33.5t9.5 36t-1.5 19t-1.5 5t6 1.5t9 -3t5 -4.5t-1 -8
t-3 -16.5t-7 -27.5t-20.5 -31t-34 -23zM226.5 9.5q2.5 -5.5 2.5 -15t-2.5 -9.5t-8 5.5t-21.5 23.5t-16 20t10 -0.5t21.5 -10.5t14 -13.5zM99 112.5q0 -6.5 -4 -6.5t-13.5 8t-9.5 10t7.5 2t13.5 -3.5t6 -10zM73 197.5q4 1.5 11.5 -2.5t8 -7.5t-5.5 -19.5t-18 -39.5t-26 -40.5
t-26 -26.5t-13 -8t21.5 29.5t34.5 58.5t13.5 40.5t-1.5 12t1 3.5zM80 164q14 1 23 -2t13 -7t4 -9.5t-4.5 -5.5t-15.5 6.5t-20 17.5zM96.5 83q-2.5 1 -21.5 -5.5t-20 -6.5t-6.5 2.5t-5.5 4.5t6.5 3.5t24 5t20 6t4.5 2t11 -5.5t9 -7.5t-4 -5t-29 -41.5l-6 4q20 43 17.5 44z
M61 49q8 0 15.5 -3.5t12 -12t4.5 -15t-2 -8.5t-3.5 -2t-8.5 11t-18 30z" />
    <glyph glyph-name="uni7565" unicode="&#x7565;" 
d="M27 142q5 -88 5 -93t-1.5 -5t-4.5 2.5t-5.5 33t-4 42t-5 17.5t0.5 7t15 -4zM86.5 69q-4.5 -20 -8 -18.5t0.5 31t4 44t-1.5 16t-6.5 1.5t-56 -8v8q16 0 35.5 4t22.5 6.5t6 2.5t11 -6.5t9 -9t-2.5 -3.5t-6.5 -24.5t-7.5 -43.5zM51 108.5q11 2.5 16 2.5t8 -3t-14 -6.5
t-19 -3t-5 4t0 3.5t14 2.5zM51 66q0 42 -3 77q14 -11 14 -15t-1 -17t-2 -44zM80 70v-7q-21 0 -53 -6v8q10 1 18.5 3t34.5 2zM99 114q-2 2 5.5 11.5t16.5 28t12 29.5t0 15t1 5t12.5 -4.5t8.5 -9t-4 -9t-16 -25.5t-23 -31.5t-13 -9.5zM51 27q-1 2 20 14t37.5 28.5t32.5 38
t23 34.5t5.5 14.5t-14.5 -1.5t-27 -3v7q11 0 24 4t16 6.5t5.5 2.5t13.5 -6.5t10.5 -9t-5 -2.5t-7.5 -7t-26.5 -38.5t-44.5 -48t-41.5 -26t-21.5 -7.5zM198 57.5q-7 5.5 -27.5 25t-34 31t-21.5 13.5v5q13 3 33 -14.5t38 -30t41.5 -20.5t23.5 -10.5t-14 -3.5t-23 -1t-16 5.5z
M120 47.5q1 -1.5 2.5 -30.5t-3 -29t-6 6.5t-3.5 24.5t-5.5 24t-1 7.5t9 0t7.5 -3zM112 49q8 0 17.5 1.5t24 3.5t15.5 4t4 2t15 -6.5t12 -9.5t-5 -4.5t-16 -32.5h-11q5 20 5.5 29.5t-1 10.5t-60.5 -6v8zM186.5 3q-1.5 -2 -69.5 -5v9q11 0 34.5 3t26.5 3t6.5 -4t2 -6z" />
    <glyph glyph-name="uni4EEC" unicode="&#x4eec;" 
d="M21.5 102.5q18.5 22.5 28 39t16 31t3 18.5t-1 6.5t8 0t10.5 -6.5t5 -7t-24.5 -40t-43 -53t-19.5 -13.5t17.5 25zM65 123q1 -5 0.5 -52t-1.5 -56.5t-3.5 -16.5t-4.5 -7t-4.5 8.5t-2.5 12.5t2 13t3.5 42.5t1 41t-3.5 26.5q12 -7 13 -12zM99.5 22q-0.5 5 2 23.5t2.5 53
t-5 50.5q5 0 11.5 -5.5t7 -9.5t-1 -9t-1.5 -20t-1.5 -59t-4.5 -44t-6 7.5t-3.5 12.5zM115 178q11 -3 17.5 -8t7 -10.5t-2 -10t-4 -4.5t-7.5 8t-11 25zM217 17.5q-2 -16.5 -8.5 -23.5t-9.5 -7t-4.5 7t-14 15t-12.5 10t12 -0.5t16 -1t5 7.5t1.5 20.5t0 32.5t-0.5 36.5
t-0.5 28.5t-5 11t-18 -2t-16 -3t-13.5 6q45 8 46 10.5t4 2.5t12.5 -5.5t10.5 -8t-3 -5t-2 -59t0 -73z" />
    <glyph glyph-name="uni7EB3" unicode="&#x7eb3;" 
d="M44.5 11q-11.5 -7 -15 -7t-9.5 8t-3.5 11t9 1t40.5 11.5t35 10.5t-22 -15.5t-34.5 -19.5zM112 126.5q0 2.5 3 2.5t11 -3q0 -37 -1.5 -70.5t-5 -45.5t-5.5 -12t-4.5 9.5t-0.5 19.5t4 30t2 36.5t-1.5 23.5t-1.5 9.5zM190.5 57q-1.5 0 -33.5 35q14 0 24.5 -7t12 -14.5
t0 -10.5t-3 -3zM79.5 125.5q10.5 18.5 7 21t0 4t9 -1.5t8 -7t-1.5 -9.5t-24 -31t-18.5 -26.5t23 3t21.5 1t-25.5 -11t-30 -12.5t-7.5 -5t-7 4.5t-4 8t7.5 7t19.5 20.5t22.5 35zM202 18.5q3 4.5 3 44.5t-1.5 51t-5 12.5t-78.5 -8.5v9q11 0 28 2.5t32 5t17.5 5t5 2.5t12 -6
t9.5 -9t-3.5 -5t-2 -32t1 -55t-6 -37t-9 -12t-5.5 7t-12.5 14.5t-10.5 10t11.5 -0.5t14.5 1.5zM173 171.5q-1 -15.5 -5 -42.5t-12 -42.5t-19 -27t-12 -9.5t11.5 21.5t17 47t4 49.5t-4 24.5t-1 4.5t11 -1.5t9.5 -6t0 -18zM56 158.5q9 19.5 6 23.5t1 5t10.5 -5.5t7 -9t-20 -31
t-19.5 -29.5t39 4l-3 -11q-16 0 -33 -5t-18.5 -5t-3 5.5t-1.5 7.5t4.5 4.5t13 14.5t17.5 31.5z" />
    <glyph glyph-name="uni5FF5" unicode="&#x5ff5;" 
d="M19 96q16 12 34.5 31t31.5 38.5t17 28.5t1 12.5t0.5 4.5t12 -3.5t8.5 -7t-5 -11.5t-22.5 -32t-39 -42t-37.5 -27.5t-16.5 -6t15.5 14.5zM225.5 102q-20.5 -2 -27 -1t-16 9t-78.5 80l8 3q13 -13 26.5 -25t29.5 -24t48 -23.5t31 -14t-21.5 -4.5zM115.5 117q-1.5 0 -12 10.5
t-10.5 12.5t7.5 2t14.5 -5t7 -10t-2.5 -7.5t-4 -2.5zM127 73q-10 -8 -15.5 -11t-7.5 -1.5t4.5 7t18.5 19t10.5 14.5t-31 -9.5t-34 -10t-13.5 10.5q10 1 28 5t31.5 8t16 6.5t5 2.5t11.5 -6t9 -8.5t-4 -4t-11.5 -8t-17.5 -14.5zM132 35q-1 -7 -3 -8t-25 28q9 0 19 -6.5
t9 -13.5zM202.5 54.5q5.5 -5.5 5.5 -13.5t-4 -8t-24 16t-19.5 18t18.5 -2.5t23.5 -10zM195 -6q0 -3 -15 -8.5t-37.5 -3.5t-40 13.5t-26.5 32.5t-6.5 21.5t5.5 -4.5t10.5 -16t19 -18.5t24.5 -11t22 -2.5t12 3t-2.5 16t-3.5 14.5t13.5 -13t18 -17t6.5 -6.5zM31.5 3
q-2.5 0 -5 6t-2.5 8.5t5.5 9t13.5 30.5q3 0 6 -5.5t1 -16.5t-9 -21.5t-9.5 -10.5z" />
    <glyph glyph-name="uni78D0" unicode="&#x78d0;" 
d="M75 60q85 16 93 16t12 -1.5t4 -3.5t-14.5 -4.5t-35 -5.5t-32 -5t-14 -2t-13.5 6zM73.5 21q19.5 15 45.5 44q11 -10 10 -12.5t-9 -9.5t-35.5 -26t-43.5 -25.5t-17 -4.5t14.5 10.5t35 23.5zM107 -11q0 -4 -1.5 -8t-4 -4t-5.5 15l-8 40q5 0 13 -3q2 -10 4 -23t2 -17zM160 -4
q11 24 11 27.5t-3 6t-72 -7.5v8q9 1 40.5 5t33.5 6t5 1.5t12.5 -6.5t9 -8.5t-5.5 -4t-20 -25.5zM184 -1.5q0 -2.5 -83 -7.5v9q13 0 32 2.5t31 3t16 -2t4 -5zM69 175q14 18 17.5 25t1 9t0 4t10 -1.5t7.5 -6.5t-14 -16.5t-22 -13.5zM44.5 70.5q9.5 13.5 15 30t6.5 38.5t-3 30
t-1 10t13 -2q3 -59 -6 -79t-19 -31.5t-12.5 -10.5t7 14.5zM97.5 148.5q-1.5 -6.5 -4 -6.5t-5.5 9.5t-1 10t7 -3t3.5 -10zM88 121q3 0 7 -4t4 -6.5t-3 -5.5t-5.5 1t-2.5 15zM17 125q12 -2 98 12v-5q-6 0 -44.5 -11t-41 -11t-8 5.5t-4.5 9.5zM91 93.5q1 1.5 7.5 -0.5t9.5 0
t3.5 16.5t0.5 39t-3 25.5t-13.5 -1.5t-26.5 -2.5v7q16 0 26 2.5t11 4t4 1.5t10.5 -4t7.5 -6.5t-2.5 -4.5t-3 -8t-1 -41.5t-5 -43t-7 -7.5t-4.5 5.5t-8.5 11t-5.5 7zM133.5 133q-5.5 -4 -6.5 -3t6.5 10.5t10.5 21.5t1.5 21.5t1 10.5t10.5 -6q0 -11 -2.5 -23.5t-9 -20
t-12 -11.5zM149 188q16 0 22 2t8.5 4.5t4.5 3t9 -3t7 -5t-7 -8t-7 -13t1.5 -8t11 0t13.5 1.5t5 -1.5t1 -4t-8 -5.5t-16 -3t-12 1.5t-5 7t0 15t0 11t-5 0t-23 -1.5v7zM190.5 138.5q6.5 -3.5 6.5 -7.5t-15 -19.5t-36 -23t-21.5 -6t18 11.5t28.5 21.5t7.5 14t-9 1t-11 -2.5
t-9.5 0t-5 4q30 6 32.5 8t5 2t9 -3.5zM174 110q27 -13 53 -18t26 -6.5t-18.5 -5.5t-22.5 -4t-14 8t-26.5 17.5t-35.5 19.5q3 2 7 2t31 -13z" />
    <glyph glyph-name="uni4EBA" unicode="&#x4eba;" 
d="M19 25q16 11 40 38.5t36 53.5t15 42.5t0 20t-0.5 5t9 -1.5t11 -7t3.5 -8t-9.5 -27t-22.5 -45.5t-35 -44t-36 -29.5t-21 -10.5t-6 0t16 13.5zM231.5 11.5q-21.5 -2.5 -29.5 -2.5t-13 2.5t-26.5 28t-61.5 81.5l3 8q13 -16 32 -37.5t36 -36t49 -25.5t32 -13.5t-21.5 -5z" />
    <glyph glyph-name="uni5982" unicode="&#x5982;" 
d="M13 100q5 0 22.5 2.5t47 8t42.5 5.5v-8q-13 0 -23.5 -2t-40 -11t-33 -9t-8 2.5t-8.5 7t1 4.5zM74.5 26q12.5 11 24 30t17 43.5t3 31t1 6.5t10 -5.5t6.5 -8.5t-4 -19t-10.5 -33t-24 -37t-40.5 -30.5t-24 -8t14 11t27.5 19.5zM154.5 68q-2.5 27 -6.5 34.5t-2.5 10.5
t19.5 -2q0 -3 1.5 -37.5t1.5 -37.5t-2.5 -7t-5.5 4t-5.5 35zM155 111q13 0 33 3.5t23 7t7 3t14.5 -7t10.5 -9.5t-4.5 -4t-10.5 -20t-6 -32h-11q0 5 2.5 24t2 23.5t-2.5 6.5t-8.5 2t-49.5 -7v10zM220 60q4 0 7 -2.5t3 -5.5t-24 -7t-43 -4v9q24 2 38.5 6t18.5 4zM84.5 194
q3.5 2 12.5 -4.5t8 -12t-6.5 -30.5t-13.5 -49.5t-6.5 -26t8 -6t25.5 -19.5t20.5 -27t-0.5 -13.5t-5 1.5t-13.5 16.5t-28 29t-17.5 18t6 28t10.5 56t0.5 34t-0.5 5.5z" />
    <glyph glyph-name="uni5546" unicode="&#x5546;" 
d="M106 139q0 -5 -1 -6.5t-4 -1.5t-8 5.5t-7 10.5t-1.5 6.5t6 1t10.5 -5.5t5 -10zM83.5 80.5q8.5 8.5 12 14.5t2 9t0.5 3.5t7.5 -1.5t6 -6.5t-6 -10.5t-17.5 -13.5t-12 -5.5t7.5 10.5zM156 81q-4 0 -16.5 13t-12 14.5t6.5 1.5t16 -7t10 -14.5t-4 -7.5zM109 214q8 0 16 -4
t9.5 -6.5t1.5 -8t-3 -8t-8 0t-15 12.5t-9.5 12t8.5 2zM40 153q-3 0 -12 6t-5.5 6t24 3t40.5 5.5t69.5 10.5t62.5 2.5t13 -9.5t-4 -5t-14.5 0t-30.5 1t-34.5 -1t-42.5 -5.5t-45.5 -9t-20.5 -4.5zM154.5 151.5q-4.5 -3.5 -26.5 -28.5h-8q8 12 15.5 26.5t5 17t0.5 4.5t11 -3
t7.5 -9t-5 -7.5zM57.5 71.5q0.5 27.5 -3 36.5t-2.5 11t17 -2q0 -32 -0.5 -59.5t-3 -46.5t-5 -19t-5.5 7.5t-3 10.5t2.5 18.5t3 43zM100 19q-1 0 -2.5 4t-9.5 44q5 0 14 -3q0 -13 1.5 -27.5t-0.5 -16t-3 -1.5zM141 72.5q3 -0.5 9.5 -6t6.5 -8t-4 -4t-11 -20.5l-9 1q3 10 3 17
t-1.5 8t-5.5 1t-33 -2v5q37 5 39.5 7t5.5 1.5zM146 30.5q-4 -1.5 -7 -1.5t-40 -2v8q8 0 24 2.5t18.5 2t5.5 -2t3 -3.5t-4 -3.5zM190.5 -24q-4.5 -5 -9 -5t-4 8.5t-11.5 18.5t-10.5 11t12 -2.5t13.5 -1t4 9t1 13.5t-2.5 44.5t-5 42.5t-12 5.5t-105.5 -12.5v9q34 4 71.5 8.5
t40 7.5t5 3t13.5 -6.5t11 -8.5t-3.5 -4.5t-2.5 -23.5t3.5 -46.5t2 -36.5t-3.5 -20t-7.5 -14z" />
    <glyph glyph-name="uni7ECD" unicode="&#x7ecd;" 
d="M68.5 194.5q-2.5 3.5 0.5 5t8.5 -1t9.5 -8t1.5 -9.5t-11 -16t-20 -24t-9 -13.5t42.5 -1.5q-3 -8 -7 -8t-21.5 -1.5t-25 -5t-9 1t-2 8t6 7.5t17.5 20.5t16 29.5t2.5 16.5zM79.5 77q-23.5 -9 -27.5 -12.5t-6.5 -3.5t-6 5t-3.5 8t5.5 5.5t14.5 11.5t23.5 27.5t18 27t3 12
t3 3.5t10 -4.5t6.5 -8t-29.5 -34t-28 -32t17.5 2.5t19.5 4.5t3.5 -1.5t-23.5 -11zM162 160q13 -12 13.5 -15t-10 -19.5t-24.5 -29.5t-24 -19t-11.5 -4t6 8t17.5 17t20 28.5t13 33.5zM140 -14.5q-4 -2.5 -5 1.5t-4.5 30.5t-7 35.5t-1.5 11t10 -1t8.5 -4.5t1.5 -17t1.5 -34.5
t-3.5 -21.5zM210 71.5q4 -0.5 13 -7t9 -9.5t-6 -6t-23 -37h-11q11 35 11 39t-1.5 5.5t-5.5 1.5t-24.5 -4t-40.5 -4v10q24 0 45 4t25.5 6t8.5 1.5zM136 1v9q24 3 41.5 6.5t28 1t10.5 -6.5t-4 -5.5t-10.5 0t-20 0t-45.5 -4.5zM19 27q0 4 5.5 2t8.5 -1.5t36 13.5t38 14t5 -1
t-28 -18.5t-35 -23t-11.5 -6t-11.5 8.5t-7 12zM183 77q-4 1 -3.5 7t-7 13t-6 8t10 -2t12 -2t10.5 24t7 28t-1.5 6.5t-5.5 1.5t-16 -2t-25 -6t-16 -4t-7 2.5t-4 6.5q12 2 39.5 8t30 8.5t4.5 2.5t12 -4.5t12 -8t-1.5 -5.5t-4.5 -8.5t-5.5 -21t-9.5 -27.5t-13 -19.5t-12 -5.5z
" />
    <glyph glyph-name="uni5347" unicode="&#x5347;" 
d="M155.5 6.5q-0.5 37.5 -1.5 95t-2.5 75.5t-4.5 21t-2 6t8 1t12 -5.5t4.5 -8t-2 -16t0 -62t1.5 -64t-1.5 -36.5t-4 -34.5t-5 -10.5t-3 38.5zM109.5 156q-17.5 -10 -36 -17.5t-20 -5.5t15.5 12t27.5 19t8 12.5t0 4.5t13 -2.5t10 -8t-18 -14.5zM9.5 93q0.5 1 9.5 1.5t53 7
t62.5 9t46.5 7.5t32 5t10.5 -2.5t10.5 -7.5t3 -6.5t-25 -1.5t-41.5 -1t-61.5 -8t-63.5 -11t-23.5 -2.5t-8.5 5.5t-4 5zM51 5q13 12 22.5 29t13.5 40t4 38t-2 41q15 -9 17 -12.5t0.5 -31t-7 -47.5t-17.5 -36.5t-27 -26.5t-16 -8t12 14z" />
    <glyph glyph-name="uni77F3" unicode="&#x77f3;" 
d="M147 159q-61 -9 -73 -9t-17.5 4.5t-3 6t12 1.5t19 1t32 5t44.5 8t26 4t13 -3t8.5 -6t-61.5 -12zM137 145.5q1 -4.5 -8 -18t-28 -40t-42 -44.5t-39.5 -25t-17 -4.5t14 11.5t32.5 25.5t34 38t26 40t8.5 23.5t1.5 6.5t10 -3.5t8 -9.5zM83.5 80q3.5 1 16.5 -1q5 -65 5 -70
t-2 -6t-3 -1t-4.5 14.5t-6 31t-6 24t0 8.5zM173.5 92.5q2.5 2.5 5 2.5t15 -8.5t12.5 -12t-4.5 -5.5t-20.5 -41h-13q8 30 8.5 39t-2.5 10.5t-11.5 0.5t-20 -3t-50.5 -7l1 11q8 0 27 3t35 5.5t18.5 5zM197.5 21.5q-0.5 -1.5 -41.5 -4.5t-57 -3v10q11 0 49 5t40.5 4t6 -5.5
t3 -6z" />
    <glyph glyph-name="uni58EB" unicode="&#x58eb;" 
d="M110.5 197q-4.5 4 -4.5 7t13 -0.5t15 -7.5t-0.5 -7t-4.5 -166h-14q0 170 -4.5 174zM59.5 18.5q14.5 1.5 37.5 5.5t48 8t30.5 2.5t11 -4t9.5 -6.5t2.5 -5.5t-31 -1.5t-50.5 -2.5t-34.5 -5t-16 -2.5t-10 2.5t-9.5 5t12.5 4zM236.5 105.5q0.5 -4.5 -6 -5t-18.5 0.5t-32 0
t-44 -4t-49.5 -7t-40 -6.5t-18 -2t-9 4.5t-6 6t6 2t49.5 5.5t88 13t49 7.5t17 -5t13.5 -9.5z" />
    <glyph glyph-name="uni52BF" unicode="&#x52bf;" 
d="M64 88.5q-8 6.5 -7 7.5t9 -1.5t10.5 0.5t2.5 41.5t-1.5 50t-4.5 13.5t-2.5 5.5t9.5 0.5t10.5 -5t0 -7t-1 -56.5t-3.5 -59t-8 -7.5t-5 5.5t-9 12zM114 163q-1 -2 -30.5 -8.5t-33 -7t-9.5 1.5t-6 3.5t6.5 2.5t35.5 9t33.5 4.5t3.5 -5.5zM102 81.5q-2 1.5 12 15.5t23 35
t11.5 48.5t-0.5 29.5t-2 4.5t10.5 0t9.5 -5t-1.5 -14t-4.5 -30t-13 -39.5t-26.5 -33.5t-18.5 -11zM165.5 107q-1.5 -6 -3 -6t-20 15.5t-18.5 19.5q18 -2 30.5 -12.5t11 -16.5zM236.5 114.5q1.5 -16.5 4 -20.5t-3 -7t-18.5 -3t-24 6t-15 15t-3.5 19.5t4 25t2 17t-18.5 -2.5
t-25.5 -8t-11.5 -3t-7.5 3t3.5 4.5t33 9t28 10.5t5 2.5t9.5 -5.5t7 -8t-5.5 -4.5t-9 -18t-4 -24.5t5.5 -15t16 -8t14 1.5t6 16t4.5 14t3.5 -16zM22 98.5q-6 4.5 -5.5 7.5t5 2t7 -0.5t39 16.5t40.5 16t4 -1.5t-38 -23t-42 -21.5t-10 4.5zM130 -4q-10 9 -8.5 11t12 -3t15 -1
t9.5 20t5 26.5t-1.5 12t-9.5 1.5t-25.5 -2.5t-38.5 -7t-22.5 -4.5t-5.5 3t-4.5 4.5t4 2.5t29 4.5t47.5 7t25 6t4.5 2.5t12 -8t10 -10.5t-3 -3.5t-6.5 -18.5t-9.5 -34t-15.5 -24.5t-13 -7t-2 7.5t-8 15.5zM46 -11q20 11 36 26.5t24 32.5t9.5 24t-1 9t-0.5 5t10.5 -0.5t9 -5.5
t-7.5 -21.5t-18 -33.5t-28 -26t-35 -19t-18 -4.5t19 13.5z" />
    <glyph glyph-name="uni4E66" unicode="&#x4e66;" 
d="M162.5 156q2.5 0 13 -5.5t10.5 -8.5t-3.5 -5t-20.5 -48h-9q3 8 6.5 27.5t1 22.5t-7.5 3t-15 -1.5t-35.5 -7t-28 -5.5t-8 4.5t-5.5 6t13 2.5t30 3.5t35 5t19.5 4.5t4 2zM128.5 201q1.5 -4 -1 -7.5t-2 -78.5t-0.5 -94t-3 -32.5t-4 -13.5t-4 10.5t-2.5 28t-1 101.5
t-4.5 87.5t-4 6.5t12.5 -0.5t14 -7.5zM133 91q33 5 44 6t14 3.5t6.5 2t13.5 -8t10 -10t-4 -5t-6 -15t-7.5 -26t-12.5 -19t-10 -5t-3 7t-12 16t-10 11t11.5 -2t14.5 -3t10 20t3.5 21t-10.5 1.5t-31 -2.5t-39 -5.5t-42 -7.5t-28.5 -4.5t-9.5 5t-6 7.5t5.5 2t35.5 2.5t63 8z
M174.5 185.5q1.5 0.5 5.5 0t13.5 -3t14.5 -8t5 -11t-2.5 -8t-19 10t-17.5 16t0.5 4z" />
    <glyph glyph-name="uni53F8" unicode="&#x53f8;" 
d="M30 92q0 2 8 2t12 -1.5t8 -28t4 -32.5t-3 -6t-10.5 27.5t-13 32t-5.5 6.5zM112 81q0 8 -3.5 9.5t-26.5 -2.5t-39 -4v8q8 0 17.5 1.5t28.5 5t21 6.5t5 3t15 -6.5t12 -8.5t-5 -4.5t-17 -36.5h-14q6 21 6 29zM117.5 60q5.5 0 9 -3.5t3 -6.5t-4 -3t-69.5 -8l-3 10
q8 0 33.5 5.5t31 5.5zM116 148q7 0 12 -2.5t5 -5.5t-26.5 -8t-32 -5.5t-12 1t-10.5 4.5t-1.5 4t13.5 2t28 5.5t24 4.5zM167.5 196q3.5 0 15 -5.5t13 -8.5t-2.5 -6t-2 -41t0 -84.5t-10 -61t-13 -14.5t-5.5 8.5t-15 18t-14.5 11.5t16 -1.5t19 -1t5.5 22t2.5 70t-1.5 60
t-3.5 13.5t-17 4t-42 -4t-31 -4t-10.5 5.5t0 5.5t48.5 4t43.5 6.5t5 2.5z" />
    <glyph glyph-name="uni63D0" unicode="&#x63d0;" 
d="M58 -21q-3 0 -4.5 8.5t-12 17t-9.5 10t12.5 -2t14.5 -0.5t4 64t0.5 77t-1.5 29t-4 15.5t-1.5 5.5t11 0t10.5 -5.5t-0.5 -6t-2 -11.5t-1.5 -72.5t-1 -89t-6 -32t-9 -7.5zM129 181q8 -54 8 -62t-4 -8t-7 18.5t-5 29.5t-5.5 15.5t-2.5 7.5t16 -1zM188.5 194
q3.5 -1 11.5 -7.5t7 -9.5t-5 -4.5t-11.5 -29t-12 -26.5t-0.5 26.5t4 29.5t-4 6.5t-24 -1.5t-31 -4v8q12 1 34 4.5t25 6t6.5 1.5zM95 133q-6 -3 -20 -6.5t-27 -7t-15 -3.5t-7 2.5t-5 4.5t5.5 3t33.5 10t34.5 6.5t6.5 -4.5t-6 -5zM18.5 34q-4.5 0 -10.5 6.5t-5 9.5t5 2t7 -0.5
t42 31t40.5 28t-36.5 -39.5t-42.5 -37zM202 108q12 0 16 -1.5t4 -4t-9.5 -5t-16 -3t-16 -1.5t-37 -5.5t-35.5 -5t-12.5 2t-4.5 3.5t9 1.5t49.5 9.5t52.5 9zM77.5 -0.5q-2.5 1.5 12 23.5t18.5 33.5t2 15t1.5 4t8.5 -4t5.5 -7t-2.5 -7.5t-10 -18t-20 -27t-15.5 -12.5z
M184 -0.5q-13 10.5 -71 50.5l2 7q80 -45 109 -50t29 -7t-10 -5t-21 -5t-18 -1.5t-20 11zM189 57.5q-11 -2.5 -32 -2.5v9q8 0 16 2.5t13.5 2.5t9.5 -1.5t4 -4.5t-11 -5.5zM163 77.5q-2 -6.5 -2 -60.5l-9 11l-4 67q17 -11 15 -17.5zM181 132q-5 -11 -9 -11t-39 -5v8q14 2 48 8
zM128 146v7q10 2 18.5 4t11 2t6.5 -1.5t4 -3t-4 -4t-36 -4.5z" />
    <glyph glyph-name="uni6295" unicode="&#x6295;" 
d="M47.5 14q-12.5 9 -11 10t12 -1.5t14.5 0t4.5 42.5t0 56t-2 43t-4.5 29.5t-3 5.5t10.5 0t12 -5.5t-0.5 -6t-2 -77.5t-0.5 -89t-5 -21.5t-8 -7t-4 6t-13 15.5zM100 96q-1 2 10.5 13t16 25t2.5 25t-4.5 16t3.5 5t14 -3v-28t-7 -24.5t-20.5 -21.5t-14.5 -7zM177.5 191.5
q3.5 0.5 11.5 -3t8 -6t-5 -7t-9.5 -15t-1 -18.5t16 -5t18 3t7 -1.5t1.5 -5.5t-9.5 -6.5t-20 -2.5t-16 3t-7.5 9t-1 18t2.5 16t0 5.5t-39.5 -6.5v8q20 3 29 5.5t10.5 5.5t5 3.5zM103.5 17q12.5 5 31 18t27 28t10.5 23.5t-1 10t-21.5 -4.5t-21 -6t-13.5 6q11 3 32 8.5t24 8
t7 1t10.5 -5.5t6.5 -6.5t-3 -4.5t-8.5 -16t-13 -25t-25.5 -23t-34.5 -16.5t-18 -2.5t11 7zM23.5 129q2.5 0 16 3t32 9.5t22.5 6.5t8 -1.5t4.5 -3.5t-5 -4.5t-21.5 -7.5t-31 -8t-21.5 0t-6.5 4.5t2.5 1.5zM15.5 45.5q-4.5 -0.5 -10 7t-4 9t5.5 1t6.5 0.5t44 27t43 23.5
t-39.5 -35t-45.5 -33zM116 70.5q-5 1.5 -4.5 4t6 3t18.5 -8.5t33 -24t38 -22t32 -10.5t14 -5t-10.5 -4t-20 -4t-15.5 -1t-16 10t-32.5 30t-30 25.5t-12.5 6.5z" />
    <glyph glyph-name="uni56E2" unicode="&#x56e2;" 
d="M42.5 173q-4.5 11 -2.5 11.5t20 -4.5q0 -101 -2 -146.5t-5 -45.5t-7 10t-4.5 12t3.5 33.5t3 75t-5.5 54.5zM136 25.5q-4 -0.5 -5.5 5.5t-11 13.5t-8 9t8.5 -1t11 -2t5 11.5t-1 55t-6 48t-2.5 6.5t11.5 -1t10 -6.5t-2 -5.5t-1.5 -22.5t2.5 -54t-2.5 -45t-8.5 -11.5z
M165.5 137q9.5 0 13.5 -1.5t4 -4t-1.5 -4t-8 -1.5t-42.5 -5t-41.5 -5t-9.5 1t-4 2.5t8 3t40 8t41.5 6.5zM65 52.5q-1 2.5 9 9.5t24.5 22.5t38.5 44.5l3 -16q-36 -41 -55 -52t-20 -8.5zM133 25q20 3 31 3t21 -13q-40 0 -82.5 -4t-50.5 -4v10q13 0 37 2.5t44 5.5zM52 180
q32 0 78.5 5.5t49.5 8.5t7.5 2.5t15.5 -8.5t11 -11t-3.5 -5.5t-3.5 -22.5t2 -66.5t2.5 -55.5t-0.5 -22.5t-7 -21.5t-10 -7t-3.5 9.5t-17.5 36.5q20 -11 21 -10t1.5 7t0.5 45t-2.5 73.5t-5.5 39t-7 4.5t-129 -12v11z" />
    <glyph glyph-name="uni95FB" unicode="&#x95fb;" 
d="M162 150.5q6 -0.5 9.5 -4t-1 -5t-29.5 -4.5t-39.5 -5.5t-19 -2t-9.5 6.5q83 15 89 14.5zM103 137q0 -5 -2 -77h-10v74zM150 140q-2 -56 -2 -89t-3 -44t-4.5 -11t-3 9.5t-1.5 137.5zM97 106v8q5 0 16 2.5t13.5 2.5t3 -3.5t-3.5 -5.5t-29 -4zM97 82v7q13 1 17 2.5t8 1.5
t6 -2.5t-0.5 -4.5t-30.5 -4zM60 60q107 16 113.5 16t12 -4t5.5 -6.5t-21.5 -2.5t-33.5 -1.5t-34.5 -5.5t-26 -4t-8.5 2t-7 6zM66 199q4 0 13.5 -4t12 -10.5t0.5 -12t-4.5 -5.5t-14 14t-11.5 16t4 2zM194 -11.5q-3 9.5 -13.5 18t-10 9.5t13 -4t15 -2t2.5 25v38t-1.5 59
t-4.5 45.5t-13.5 1t-31.5 -5.5t-25 -4t-15 8q5 3 11 3t18 1.5t28.5 4.5t19.5 5t5.5 2t14.5 -6.5t12 -9t-3.5 -4.5t-3.5 -41.5t2 -71.5t1 -48.5t-6.5 -24.5t-8.5 -8t-6 9.5zM37.5 46.5q0.5 11.5 2 62.5t-1.5 54t-2.5 6t6.5 1.5t10.5 -5t3 -9t-2.5 -23t-2 -62.5t-4 -57.5
t-6 -12.5t-5.5 9t-3 11.5t2 8t3 17z" />
    <glyph glyph-name="uni7A33" unicode="&#x7a33;" 
d="M203 76h-11q0 5 4 24t4 23t-3 5t-12 0t-30 -5t-26.5 -4t-9.5 3.5t-1.5 4t38.5 5t39 6.5t5.5 2t12 -6.5t9.5 -9t-3.5 -3.5t-9.5 -17.5t-6 -27.5zM176 108q3 0 7 -1.5t4 -4t-23 -6.5t-31 -4t-10.5 2.5t24 8t29.5 5.5zM168 130h-8q24 34 22.5 35.5t-11 0t-22.5 -1.5v6
q8 0 22 3.5t16 6.5t6 3t10.5 -5.5t6.5 -8.5t-6 -4.5t-36 -34.5zM120.5 133q-2.5 1 6.5 12t15.5 23.5t9.5 21.5t0.5 11t-1.5 4.5t5.5 1t9.5 -4.5t4.5 -7t-4.5 -11t-12.5 -19.5t-19.5 -22.5t-13.5 -9zM80 178.5q9 5.5 7.5 9t2 3.5t10.5 -4.5t7 -8t-17 -9.5t-37.5 -10.5
t-21 -1.5t19.5 9.5t29 12zM79 141q-2 -13 -3 -68t-3.5 -69.5t-4.5 -14t-5 9t-3 11t2 12t4.5 51t1.5 53.5t-4 41q14 -7 15.5 -10t-0.5 -16zM9.5 108q-6.5 4 -6.5 6t9.5 2t44 6.5t38.5 6.5t8 -2t4 -4.5t-6.5 -2.5t-20 -2.5t-36.5 -8t-25.5 -5.5t-9 4zM44.5 61
q-15.5 -19 -27 -26.5t-12.5 -6t8 11t19.5 23t34.5 58.5l7 -14q-14 -27 -29.5 -46zM103 75q-1 -1 -5 0t-23 20q11 0 20 -3t9 -9.5t-1 -7.5zM117.5 69q2.5 1 8 1t37.5 6.5t38.5 4t6.5 -5t-4 -4t-12 -1.5t-33 -4t-29.5 -4t-9.5 3t-2.5 4zM95 -1q-4 0 -6 6.5t2.5 13.5t7.5 17.5
t4.5 9.5t3 -4t1.5 -14.5t-4.5 -20t-8.5 -8.5zM129 23q-9 18 -6.5 18t7 -6.5t14 -16t23.5 -13t23.5 -3.5t11.5 1.5t-2.5 14.5t-3.5 14t11.5 -11.5t16 -16.5t5.5 -7.5t-7.5 -6t-28.5 -2.5t-38 8.5t-26 26.5zM160 50.5q8 -1.5 12 -5.5t4 -9t-4 -5t-13.5 9t-8 10.5t9.5 0z
M211.5 57q6.5 0 13.5 -1.5t13.5 -8t6.5 -12t-1.5 -6.5t-20 12t-18.5 14.5t6.5 1.5z" />
    <glyph glyph-name="uni6211" unicode="&#x6211;" 
d="M87 158q-1 3 2 3.5t10.5 -3t7.5 -7t-2.5 -5t-14.5 -6.5t-29 -10t-17.5 -2.5t14.5 9.5t22.5 12.5t6.5 8.5zM74 -15q-3 0 -4 7t-10.5 14.5t-9 8.5t10.5 -1t13.5 0t3.5 18v26.5t-0.5 34t-6.5 47.5q19 -13 20 -15.5t-1 -8t-1 -52.5t0 -58t-6.5 -16t-8.5 -5zM44.5 83
q-5.5 0 -11 3.5t-3.5 4.5t12.5 3t22.5 5.5t60.5 18.5t52.5 15t9 -3.5t5 -5t-4 -3t-27 -6.5t-43.5 -11t-44 -13.5t-29 -7.5zM196 -4q-12 11 -27.5 32.5t-26 46t-16 47.5t-9 52t-6.5 31.5t-2.5 6t12 -0.5t12 -6t-0.5 -5.5t-1 -16.5t3 -31t10.5 -44.5t23 -52.5t31 -40t18.5 -14
t6.5 16.5t5 16.5t3 -16t4.5 -30t-0.5 -14.5t-15.5 5.5t-24 17zM186 156q-4 0 -17.5 9.5t-13.5 14.5q11 0 20 -1.5t13 -6.5t3 -10.5t-5 -5.5zM23.5 24.5q-4.5 -0.5 -10 7t-3 10.5t6 1t6.5 -1.5t50 20t47 16t-46 -28t-50.5 -25zM184.5 73q-10.5 -13 -26.5 -26.5t-34.5 -23
t-19.5 -7.5t22 19t35.5 32t15.5 22.5t1 10t1 4t9.5 -4t6.5 -9.5t-10.5 -17z" />
    <glyph glyph-name="uni8D24" unicode="&#x8d24;" 
d="M37 189.5q0 2.5 9.5 0t9.5 -5t-1 -41.5t-3.5 -40t-6 4t-3 24t0.5 35t-3 18.5t-3 5zM75.5 206q0.5 3 9 1t10.5 -5.5t1 -10t-1 -36t-1.5 -37.5t-3 -8t-4.5 5.5t-3 35t-1 39t-4 11.5t-2.5 5zM176 206q3 -1 10 -7.5t6 -9t-4.5 -3.5t-14.5 -21t-26 -29.5t-28.5 -13t-14 -1.5
t14.5 9t26.5 19t17 25.5t4 15t-14.5 -1t-16.5 -2.5t-8 2.5t-4.5 5.5q13 0 29 3.5t18.5 6.5t5.5 2zM114 174q1 3 5 3t17 -8t31 -19t34.5 -17t29 -9t13 -5t-19.5 -4.5t-25.5 -2t-14 8.5t-35 28.5t-31.5 21t-4 3.5zM68.5 106q1.5 1 17.5 -4q0 -61 -2 -71.5t-4 -10.5t-5.5 7
t-3.5 8.5t1.5 13.5t1.5 27.5t-3.5 22t-2 7.5zM80 94v8q13 0 37 3.5t26 5.5t5.5 2t13 -5.5t9.5 -8t-3 -9t-3 -29.5t-1 -28t-5 -9t-7 0t-1.5 20t1.5 32t-2.5 20t-8 4t-11 -1t-50.5 -5zM108 83q2 2 8.5 0t8.5 -4.5t-1 -19.5t-10 -33t-22.5 -28.5t-33 -19t-18 -5t15 10t29 21.5
t18.5 27.5t6.5 28.5t-1 17t-0.5 5zM179 -15q0 -8 -1.5 -9.5t-5.5 0t-26.5 23t-22.5 27.5q29 -12 42.5 -22.5t13.5 -18.5z" />
    <glyph glyph-name="uni65B0" unicode="&#x65b0;" 
d="M53.5 151q-2.5 0 -8 2.5t-3 4t7 2.5t35 8t37 4t6.5 -4.5t-4 -3t-36 -7.5t-34.5 -6zM103 186q-1 -7 -5 -6.5t-11.5 7.5t-10 10.5t-2 5t8.5 1.5t14.5 -5.5t5.5 -12.5zM185.5 183.5q-2.5 2.5 0 4.5t8.5 0t10 -5.5t4 -7t-18.5 -11.5t-39.5 -13l-1 5q28 14 33.5 19.5t3 8z
M219.5 129q6.5 0 12 -4t5.5 -6.5t-9.5 -2.5t-78.5 -6v8q16 1 40 6t30.5 5zM187.5 -28q-2.5 0 -5 13.5t-2.5 57.5t-2 76q18 -9 18 -13t-1.5 -9.5t-0.5 -48.5t-1.5 -59.5t-5 -16.5zM89.5 59q0.5 -35 -4 -44.5t-8.5 -10t-5 6.5t-9 14.5t-6 8.5t9 -2t9.5 -1.5t2 31.5t-2.5 51
q17 -8 17 -10.5t-1.5 -5.5t-1 -38zM88 65q10 4 19.5 -1t8 -12t-4.5 -7t-23 20zM43 65q3 -3 4 -8t0 -10.5t-6.5 -16t-8 -10.5t-4 4t-1.5 9t4 9.5t12 22.5zM21 79q88 16 90.5 16t6.5 -2.5t4 -3.5t-3.5 -2.5t-44 -8t-43 -6t-10.5 6.5zM69 107q-48 -9 -51.5 -9t-8 3.5t-4.5 5
t4 1.5t25.5 3t49.5 9.5t32 6.5t8 -1.5t4 -3.5t-5.5 -4t-53.5 -11zM64.5 127q-5.5 5 -8.5 16q6 0 12.5 -3.5t5.5 -10t-2.5 -7t-7 4.5zM107.5 141q-4.5 -8 -19.5 -25h-5q16 35 13 40t-0.5 6t9.5 -3t7 -7t-4.5 -11zM119 18q-14 -15 -16.5 -13t7.5 15t17 29t11 40.5t3 40
t-2.5 21t-1 8t16.5 -0.5q1 -21 -1 -50t-11 -52t-23 -38z" />
    <glyph glyph-name="uni5FC3" unicode="&#x5fc3;" 
d="M137.5 120q-1.5 -4 -7 -3t-20 20t-14.5 21.5t9.5 0t19 -9.5t12 -16t1 -13zM186.5 152.5q5.5 -0.5 21.5 -6.5t21 -14.5t2.5 -15t-6.5 -5t-23.5 19t-20 20t5 2zM49 89.5q0 -5.5 -3 -16.5t-8.5 -16.5t-7.5 -5.5t-5 7.5t-3 9.5t5 10t9 23t6.5 15t4.5 -10.5t2 -16zM85.5 74
q-6.5 12 -10 24.5t-1 12.5t5 -6t14 -22t24.5 -24t27.5 -10.5t27.5 -0.5t13.5 4.5t-9 22.5t-7 20t18 -18t23 -22.5t8 -8t-7 -8t-25.5 -7.5t-32.5 -1.5t-28.5 7t-24 15.5t-16.5 22z" />
    <glyph glyph-name="uni8BAF" unicode="&#x8baf;" 
d="M188 57q4 -11 12 -19t16 -11t10 -3t4.5 15.5t5 15.5t4 -16t4.5 -22t0.5 -8.5t-6.5 -3t-14.5 2t-20 8.5t-18.5 19.5t-12 29t-2.5 36t3.5 37t0.5 18t-30 -7.5t-30.5 -9.5t-8 3t-5 6.5q16 2 43.5 10t31.5 13t7 5t10.5 -5.5t7.5 -7.5t-6 -6.5t-9.5 -22t-4 -33t1 -24.5
t5.5 -20zM137.5 61.5q-1.5 -14.5 -5 -37.5t-6 -23t-5 9.5t-2.5 11t3 14.5t5.5 42.5t0.5 69.5q14 -11 15.5 -13.5t0 -7.5t-3 -28t-3 -37.5zM93 90q48 13 56 13t12 -1.5t2.5 -5.5t-29 -8.5t-31 -4t-10.5 6.5zM53 8q-2 -1 -8 5t-6 9t5.5 9.5t8.5 39t1.5 34t-16.5 -5.5t-19 -7
t-13 10q15 2 30 7t19.5 10.5t7 5.5t10 -5t7.5 -6.5t-6 -7.5t-8.5 -34t-1 -29t21 10t20.5 9t-22 -21.5t-26 -25.5t-5 -7zM77 178.5q8 -6.5 8 -12t-1.5 -7t-5.5 -1.5t-18.5 12t-14 14t12 1.5t19.5 -7z" />
    <glyph glyph-name="uni4E1A" unicode="&#x4e1a;" 
d="M92 177q10 -3 12.5 -5.5t2.5 -149.5h-12q0 72 -2 96t-4 38.5t-5 15.5t-2.5 4.5t10.5 0.5zM156.5 179.5q-2.5 -4.5 -3.5 -37.5t-4 -114h-12q3 159 -2 165t0.5 6t13 -4t9 -7.5t-1 -8zM190 100.5q-21 -20.5 -42 -32.5l-4 3q13 13 25.5 27.5t17.5 23t3.5 13t1.5 5t10.5 -5
t8 -9.5t-20.5 -24.5zM76.5 89.5q2.5 -8.5 0 -15t-6.5 -6.5t-14.5 22t-10.5 24t7.5 0t14.5 -9t9.5 -15.5zM200.5 39q21.5 0 30.5 -7.5t9.5 -10.5t-20 -0.5t-47 2.5t-44 -1.5t-55 -6.5t-41.5 -5t-17 11q53 5 108 11.5t76.5 6.5z" />
    <glyph glyph-name="uni4F18" unicode="&#x4f18;" 
d="M77 145.5q-16 -27.5 -29.5 -43.5t-28 -27t-15.5 -9t13 18t31 42.5t23 41.5t3 19t0 5t11.5 -3.5t8 -10t-16.5 -33zM119 48.5q-9 -14.5 -18 -24t-18 -16.5t-10.5 -5t13.5 19.5t24 36t15 45t7.5 51.5t-2 28.5t-1.5 5.5t11 -1t10.5 -7t0 -9t-4.5 -32t-10.5 -52t-16.5 -39.5z
M192.5 10q15.5 1 22.5 4.5t10 21.5t5.5 18t4.5 -16.5t5 -22.5t-2.5 -9.5t-16.5 -7t-28 -3.5t-26 4t-14.5 12.5t-4 32t3 35t-1 16t0.5 5t10 -5t7 -8.5t-2.5 -7t-5 -22.5t-1.5 -28t9.5 -14.5t24 -4zM96 99.5q-4 0.5 -13 7.5q27 5 60 13.5t44 8.5t15 -2t4 -4.5t-25.5 -7
t-53 -10.5t-31.5 -5.5zM202.5 143.5q-2.5 -0.5 -16 11t-13.5 17.5q18 1 26.5 -5.5t7 -14.5t-4 -8.5zM59.5 77.5q0.5 20.5 -2.5 50.5q10 -5 12 -8.5t2 -25t-0.5 -40t-3.5 -44t-5.5 -25.5t-6.5 9.5t-2 18.5t4 26.5t2.5 38z" />
    <glyph glyph-name="uni57DF" unicode="&#x57df;" 
d="M66 50l-12 -1q1 38 0.5 65t-1.5 42.5t-4 18.5t-2 6t11.5 -0.5t12 -7.5t-0.5 -9.5t-2.5 -32t-1.5 -81.5zM167 124q9 -35 22.5 -65.5t25.5 -43.5t14.5 -13t4.5 13.5t4 14t5 -18t6 -25t1 -10t-8 -2.5t-18 9.5t-27.5 31.5t-23.5 44.5t-18.5 58t-14.5 59t-7.5 25t-2.5 5t7 1
t12 -4t5 -6.5t1.5 -21t11.5 -52zM191 186.5q7 -1.5 13 -5.5t5.5 -11t-2.5 -8t-11 4.5t-17 10t-8.5 6.5t6.5 3.5t14 0zM22.5 106q1.5 1 29.5 9.5t30.5 8.5t6.5 -1.5t4 -3.5t-2.5 -5t-28 -9.5t-28 -6.5t-8 3.5t-4 4.5zM23.5 39q3.5 1 35 15.5t32 12.5t-12.5 -11.5t-29.5 -21.5
t-22 -11.5t-11 7t-4.5 9.5t5 1t7.5 -1zM93.5 93.5q2.5 1.5 13.5 -1.5q0 -35 -1.5 -39t-4 -4t-3.5 18t-4 21.5t-0.5 5zM152.5 90q0.5 -2 -2.5 -5t-9 -21h-8q1 17 -0.5 20t-8.5 1.5t-25 -0.5v7q16 0 23 1.5t9.5 4t5 2.5t9 -4t7 -6zM138.5 68q5.5 0 5.5 -3t-13.5 -6t-28.5 -3v7
q31 5 36.5 5zM194.5 145q5.5 0 9.5 -1.5t4 -2.5t-2.5 -4t-37.5 -11t-44 -8t-14.5 3t-3 3t42.5 10.5t45.5 10.5zM146.5 44q5.5 0 5.5 -1.5t-32 -17.5t-36.5 -16t-9 7.5t-3.5 9.5t5.5 0.5t7 -1.5t30 9.5t33 9.5zM154 28q19 16 30 35.5t14.5 31t1 14t-0.5 4.5t11 -2.5t9 -7.5
t-11.5 -25t-27.5 -39t-29.5 -24t-14.5 -5t18 18z" />
    <glyph glyph-name="uni539F" unicode="&#x539f;" 
d="M6 -5.5q-2 1.5 11 19t25.5 41.5t19.5 51t8 47t-1 27.5t2 8t15 -5.5q0 -34 -5.5 -60.5t-15.5 -50.5t-22.5 -41t-23.5 -27.5t-13 -9zM76 173v10q20 0 56 8t48 8t16 -4t4 -6t-54 -9.5t-70 -6.5zM151.5 171q1.5 -4 -6.5 -14.5t-27 -29.5h-6q14 25 18 34.5t3 14.5t8 2t10.5 -7
zM99.5 88q-4.5 26 -8.5 33.5t-1 9.5t15 -4q8 -54 8 -59.5t-4.5 -5.5t-9 26zM181.5 66.5q-2.5 1.5 -5 8t4 28.5t4 25t-9.5 3t-16.5 -2t-59.5 -10v7q5 3 9 3t11 1.5t32.5 5.5t28 6.5t10.5 0t14.5 -6.5t6.5 -7t-5.5 -7t-11 -23.5t-8 -26.5t-5 -5.5zM104 102q8 0 30.5 5.5t28 3
t5.5 -5.5t-64 -11v8zM110 66l-1 8q40 7 72 7v-8q-24 -1 -71 -7zM96 49q3 0 5 -8t0 -17t-8.5 -18t-9 -9t-5.5 6t-2.5 8.5t6 7.5t14.5 30zM211 9q-8 5 -22 20.5t-13.5 17.5t8.5 0.5t21.5 -10.5t15.5 -19t0 -12t-10 3zM140 -23q-4 0 -5 7t-11.5 14.5t-9.5 8t11.5 -1t13.5 1
t3 18.5t-6 51q15 -6 16.5 -9.5t0.5 -9t0.5 -24t1 -32t-5.5 -19t-9 -5.5z" />
    <glyph glyph-name="uni5219" unicode="&#x5219;" 
d="M58.5 73.5q-2.5 -20.5 -5 -21t-6 7.5t-3.5 11t2 20t2.5 43t-2.5 33t0.5 8.5t14.5 -3.5q0 -78 -2.5 -98.5zM132 170.5q0 -2.5 -3 -7t-3 -38t-3 -53.5t-5.5 -20t-5 4t-2.5 9t1 22.5t1 47.5t-2.5 32.5t-22.5 -0.5t-36 -3v8q21 0 36.5 3.5t18 6t6.5 1.5t12 -5.5t8 -7z
M118 1.5q-2 -0.5 -18 21t-15.5 23.5t11 -1.5t18.5 -11.5t9.5 -14t-1 -11.5t-4.5 -6zM152.5 145.5q1.5 2.5 10 -0.5t10 -5.5t0 -9t-1.5 -22.5t-3 -36t-5.5 -20t-5 8t0 25.5t1.5 34.5t-4.5 20t-2 5.5zM202.5 196.5q11.5 -4.5 11.5 -7.5t-1.5 -7t-0.5 -67.5t0.5 -83.5
t-1.5 -30.5t-6 -16.5t-8.5 -5.5t-4 8.5t-13 17t-12 11t14 -1.5t16 -1.5t3 41t0 63t-2.5 48t-5.5 27t-2.5 6.5t12.5 -1zM26 6q10 7 21.5 19t19.5 31.5t10.5 50.5t0.5 33t-1.5 4.5t4.5 2.5t9 -3.5t4.5 -6.5t-2 -15.5t-4 -31.5t-10.5 -38t-21.5 -32t-26 -19t-13.5 -4t9 9z" />
    <glyph glyph-name="uni62DB" unicode="&#x62db;" 
d="M52 21.5q1 1.5 11.5 -1t12.5 -0.5t4 32t2 72.5t-1.5 57t-5 19t-1.5 6.5t12 -1.5t10.5 -6t-1 -5t-2 -13.5t-0.5 -48.5t-1.5 -83t-7 -53.5t-9 -8t-3 8t-10.5 16t-10 9.5zM73 123.5q-25 -6.5 -29 -6.5t-9.5 3.5t-2.5 5t37.5 10.5t37 9t6.5 -2t4.5 -3.5t-9.5 -5.5t-35 -10.5z
M18 54q4 -1 6 0t44.5 27.5t43 24t-34.5 -31t-40 -33.5t-9 -5t-9.5 5.5t-5 9.5t4.5 3zM141.5 150.5q-4.5 0.5 -10.5 8.5q8 0 41.5 6t35 8t5 2t11.5 -5.5t8 -8t-2.5 -5t-4.5 -14.5t-8 -28t-13.5 -24.5t-11.5 -8.5t-3 6t-9.5 12t-9.5 7.5t11.5 -1t14.5 1.5t8.5 16.5t5.5 22.5
t-1.5 13t-8 2.5t-30 -6t-29 -5zM105 64q-1 2 14 17t27 36t14 42q13 -11 13 -16t-6.5 -17.5t-16.5 -25.5t-27 -25.5t-18 -10.5zM126.5 61q-1.5 4 5 4t10.5 -1.5t5.5 -21.5t1.5 -33t-2 -13t-4.5 4t-6 28t-6 26.5t-4 6.5zM213 17h-14q15 40 12 43t-8 3t-64 -8v9q16 1 30 3
t24.5 4t11.5 3.5t5 1.5t16 -6.5t12 -9t-4 -3.5t-11 -13.5t-10 -26.5zM187 23q20 3 23.5 2.5t7 -3.5t3.5 -5.5t-30.5 -5t-46.5 -2.5v9q23 2 43 5z" />
    <glyph glyph-name="uni503C" unicode="&#x503c;" 
d="M2.5 68q-1.5 2 8.5 11.5t26 32.5t27.5 48.5t8 29t-0.5 5.5t11.5 -3t9.5 -10t-20.5 -39.5t-34 -48t-23.5 -21t-12.5 -5.5zM63 -8.5q-2 -13.5 -4.5 -13.5t-5.5 9.5t-3 12t2.5 19.5t4.5 108q9 -9 10.5 -13.5t0.5 -28.5t-2 -52t-3 -41.5zM169.5 184.5q-2.5 -5.5 -9 -33.5
t-7.5 -37h-11q9 63 9.5 71t-2.5 11t-1 5t10 -0.5t11 -6.5t0.5 -9.5zM110.5 150q5.5 1 29.5 4.5t42.5 9t26.5 2.5t5.5 -6t-20 -7t-43 -8t-32 -4t-10.5 2t-4 4t5.5 3zM111 116.5q0 2.5 18 -0.5v-112h-12q0 97 -3 103.5t-3 9zM194 9h-13q4 101 2 103.5t-5.5 3t-27.5 -3.5
t-32 -4v8q16 1 25.5 2t21.5 4t14.5 5t8.5 -0.5t11 -6.5t5 -6.5t-3 -4.5t-7 -100zM121 83v7q11 0 19 2.5t18.5 2.5t10.5 -3t-14.5 -6t-33.5 -3zM121 56v7q11 0 19 2.5t18.5 2.5t10.5 -3.5t-18.5 -6t-29.5 -2.5zM121 36q8 0 18.5 2.5t20 2.5t9.5 -3t-14.5 -6t-33.5 -3v7zM70 1
q125 16 142.5 16t22 -2t7.5 -8t1 -6t-18 1.5t-25.5 1.5t-39 -3t-46.5 -5.5t-22 -2.5t-22 8z" />
    <glyph glyph-name="uni5740" unicode="&#x5740;" 
d="M176.5 177q-1.5 -4 -2.5 -32.5t-1 -119.5h-13q2 46 1 91.5t-2.5 56.5t-4.5 13.5t-2.5 6t12.5 -0.5t13 -7.5t-0.5 -7.5zM168 113q13 0 25 4t16.5 4t8 -3.5t3.5 -5t-5 -4.5t-48 -5v10zM133.5 113q-1.5 -3 0.5 -93h-11q0 50 -3 74.5t-5.5 27.5t-1 5t9.5 -0.5t10 -6.5t0.5 -7
zM241 18.5q-4 -1.5 -20 0t-62.5 -2.5t-55.5 -6t-12 -2.5t-11 4.5t-2.5 6.5t55 7l67.5 7.5t23 2t11 -4.5t8.5 -7.5t-1.5 -4.5zM61.5 35.5q-26.5 -18.5 -29.5 -19t-8 4t-7.5 9t0 6t5 0t5 -1.5t41 19.5t39.5 16t-9 -9.5t-36.5 -24.5zM72.5 106.5q-29.5 -6.5 -33.5 -6.5t-8 2.5
t-4 4t30.5 10t33.5 8.5t7 -1.5t4 -6t-29.5 -11zM73.5 152q-0.5 -17 -1 -57t-1.5 -48l-10 -6q0 99 -2 118t-5.5 21.5t-2 5t13 -1t12 -7.5t-1 -6t-2 -19z" />
    <glyph glyph-name="uni5236" unicode="&#x5236;" 
d="M63.5 140q-8.5 -15 -17 -23.5t-10.5 -7.5t4 11.5t11.5 25.5t3.5 19t0.5 5t9.5 -3t7 -8t-8.5 -19zM100.5 163q-1.5 -19 -2 -84t-2.5 -81t-4.5 -15t-5 10t-2.5 11.5t2.5 25t2.5 92.5t-3 74t-0.5 5.5t10.5 -2t8.5 -7t-1 -7t-3 -22.5zM53 131v6q10 1 38.5 8.5t37.5 7.5t9 -3
t-4 -6t-14 -4.5t-30.5 -5t-36.5 -3.5zM19.5 92q-6.5 3 -6.5 5.5t10.5 2.5t58.5 9.5t59 9.5t13.5 -2.5t-1.5 -5.5t-10.5 -3t-26.5 -2t-51 -9.5t-35 -7.5t-10.5 3zM61 74q0 -54 -1.5 -59t-4 -2.5t-4.5 7.5t-1 13.5t0.5 20t-2 16.5t1.5 6.5t11 -2.5zM57 64l-1 10q19 1 42 5.5
t25.5 6.5t5.5 1.5t10.5 -6t7.5 -8.5t-3 -4t-3.5 -19t-5.5 -26t-8 -8.5t-3.5 5t-7.5 10.5t-6 6.5t7 0t8.5 0t2.5 17.5t-2.5 17.5t-10.5 1t-58 -9.5zM179 111.5q0 -27.5 -2.5 -43.5t-4 -16t-4.5 6.5t-1.5 20t1.5 27t-1 22.5t-4 12t-3 5.5t7.5 1t9.5 -4.5t2 -30.5zM177.5 16.5
q1.5 1.5 12 -3t13 -4.5t4 6.5t1.5 44t-2.5 77.5t-3.5 48.5t-3.5 10.5t-2.5 4.5t5 2t12 -4.5t7 -7t-2 -6t-0.5 -42.5t2.5 -89t-3 -60t-9 -13.5t-6 5t-13.5 19t-11 12.5z" />
    <glyph glyph-name="uni91CD" unicode="&#x91cd;" 
d="M153.5 203q3.5 0 10.5 -5.5t5.5 -10t-19.5 -8t-46.5 -7t-29 -0.5t26 8.5t39.5 10.5t11.5 8.5t2 3.5zM237 147.5q0 -2.5 -26.5 -2.5t-38.5 -1.5t-37.5 -4t-64 -8t-45 -2.5t-8 5.5t2.5 2.5t13.5 1.5t68 8t81 10.5t28 4t10.5 -2t10.5 -5.5t5.5 -6zM55.5 113.5
q1.5 2.5 16.5 -2.5q16 -59 11 -59t-13 25t-12 29.5t-2.5 7zM64 111q18 0 41 4t39.5 7t18.5 4.5t6 2t14.5 -7.5t10.5 -11t-4.5 -4.5t-14.5 -23.5t-11.5 -22t-2.5 1t-1 5t5 24t2.5 23t-6.5 3t-45 -7t-50 -9zM138.5 97q5.5 0 9.5 -1.5t4 -3t-24 -5.5t-29.5 -2t-4 3t20 5t24 4z
M83 55v8q10 1 35.5 4.5t44.5 3.5v-8q-14 1 -80 -8zM157 44q3 0 8 -2.5t5 -4t-36 -7t-44 -5.5t-10.5 3t36 9.5t41.5 6.5zM63 -17q-5 0 -12.5 2.5t-10.5 7.5q80 8 108 12t40 4t20 -6.5t6.5 -8t-22.5 -1t-58.5 -2t-51.5 -5.5t-19 -3zM112 180q11 0 15 -8t2.5 -13.5t-1.5 -162.5
h-11q0 109 -5 184z" />
    <glyph glyph-name="uni8D44" unicode="&#x8d44;" 
d="M95 154.5q5 6.5 11 15t11.5 20.5t3.5 15t-1 5.5t11.5 -2t9 -8.5t-10.5 -16t-22.5 -25t-15.5 -12t3 7.5zM194.5 176.5q-6.5 -0.5 -15.5 -9.5t-11 -7.5t2 11t2.5 11t-26 -4t-31.5 -5.5v8q10 0 32 5t23.5 8t4 3t10.5 -4t12 -7t4 -5.5t-6.5 -3zM132 177q16 -13 16 -15.5
t-4 -13t-10.5 -19.5t-24 -18t-18.5 -7t12 11t21 22t8 40zM188.5 111.5q-11.5 7.5 -53.5 34.5l2 4q53 -24 82.5 -29.5t29.5 -7.5t-16.5 -5t-24.5 -3.5t-19.5 7zM83 97q1 -6 2 -20.5t1 -21t-2.5 -22.5t-4 -16t-4 5.5t-1.5 24t0 28t-3.5 14.5t-2 8t14.5 0zM166 79
q0 -14 1 -23.5t-3 -21.5t-5 -12t-4 7t-3 33.5t-2.5 30.5t-9 4t-21.5 -2.5t-43 -8.5v11q12 0 19 1.5t26 5t21 6.5t5 3t13.5 -5.5t10.5 -8.5t-2.5 -4.5t-2.5 -15.5zM85 -5.5q15 14.5 20.5 31t5.5 33t-3 19t-1.5 4.5t10.5 -0.5t9 -5t-0.5 -16t-5 -29.5t-14 -29t-22.5 -21
t-21.5 -11t-10.5 -1t8 6.5t25 19zM174 -3q11 -12 11 -20t-3 -8t-29.5 24t-25.5 26t6.5 0.5t17.5 -6t23 -16.5zM75.5 156q-2.5 0 -33.5 18q4 3 15 3t18 -4.5t5 -10.5t-4.5 -6zM37.5 115.5q3.5 1.5 28.5 13t26 10t-24 -21.5t-29 -20t-10 8t-3 10t5.5 0.5t6 0z" />
    <glyph glyph-name="uni6C90" unicode="&#x6c90;" 
d="M137 210q11 -4 11.5 -7.5t-1.5 -7t-2 -74.5t0.5 -93t-1 -38.5t-4 -16.5t-7.5 7.5t-5 11.5t1.5 13.5t2 25.5t0.5 40.5t0.5 43t-1 53t-5 38t-2 6t12.5 -1.5zM166 126.5q-32 -6.5 -51 -10.5t-22.5 -4t-8.5 1.5t-8 6.5q100 24 109.5 24t13.5 -1.5t4 -4t-2.5 -4t-34.5 -8z
M120 78.5q-9 -13.5 -22 -26.5t-29 -22t-17 -7t16.5 17t32.5 36t27 49l12 -4q-11 -29 -20 -42.5zM143 119q28 -31 46 -45.5t41.5 -22.5t23.5 -10.5t-20 -4.5t-27 -1.5t-14 9.5t-54 66zM62.5 146q-2.5 0 -14 13.5t-11.5 15t9.5 1.5t16 -5.5t6.5 -11t-2 -9.5t-4.5 -4zM37.5 97
q-2.5 0 -9 6t-11.5 12.5t-4.5 8t8.5 1.5t15.5 -6t5.5 -14t-4.5 -8zM67.5 99q3.5 -1 -10.5 -34.5t-17 -43t-6.5 -10t-10.5 8t-7 12.5t3.5 4t6 1.5t20.5 32t21.5 29.5z" />
  </font>
</defs>
</svg>
